<?xml version="1.0" encoding="UTF-8" standalone="no"?>
<!DOCTYPE svg PUBLIC "-//W3C//DTD SVG 1.1//EN"
 "http://www.w3.org/Graphics/SVG/1.1/DTD/svg11.dtd">
<!-- Generated by graphviz version 2.40.1 (0)
 -->
<!-- Title: snakemake_dag Pages: 1 -->
<svg width="1059pt" height="774pt"
 viewBox="0.00 0.00 1059.00 774.00" xmlns="http://www.w3.org/2000/svg" xmlns:xlink="http://www.w3.org/1999/xlink">
<g id="graph0" class="graph" transform="scale(1 1) rotate(0) translate(4 770)">
<title>snakemake_dag</title>
<polygon fill="#ffffff" stroke="transparent" points="-4,4 -4,-770 1055,-770 1055,4 -4,4"/>
<!-- 0 -->
<g id="node1" class="node">
<title>0</title>
<path fill="none" stroke="#567bd8" stroke-width="2" d="M512.5,-36C512.5,-36 482.5,-36 482.5,-36 476.5,-36 470.5,-30 470.5,-24 470.5,-24 470.5,-12 470.5,-12 470.5,-6 476.5,0 482.5,0 482.5,0 512.5,0 512.5,0 518.5,0 524.5,-6 524.5,-12 524.5,-12 524.5,-24 524.5,-24 524.5,-30 518.5,-36 512.5,-36"/>
<text text-anchor="middle" x="497.5" y="-15.5" font-family="sans" font-size="10.00" fill="#000000">all</text>
</g>
<!-- 1 -->
<g id="node2" class="node">
<title>1</title>
<path fill="none" stroke="#59d856" stroke-width="2" d="M296,-108C296,-108 213,-108 213,-108 207,-108 201,-102 201,-96 201,-96 201,-84 201,-84 201,-78 207,-72 213,-72 213,-72 296,-72 296,-72 302,-72 308,-78 308,-84 308,-84 308,-96 308,-96 308,-102 302,-108 296,-108"/>
<text text-anchor="middle" x="254.5" y="-87.5" font-family="sans" font-size="10.00" fill="#000000">downselect_peaks</text>
</g>
<!-- 1&#45;&gt;0 -->
<g id="edge1" class="edge">
<title>1&#45;&gt;0</title>
<path fill="none" stroke="#c0c0c0" stroke-width="2" d="M308.1282,-74.1102C354.3847,-60.4045 419.9655,-40.9732 460.5613,-28.9448"/>
<polygon fill="#c0c0c0" stroke="#c0c0c0" stroke-width="2" points="461.7234,-32.251 470.317,-26.0542 459.7347,-25.5394 461.7234,-32.251"/>
</g>
<!-- 2 -->
<g id="node3" class="node">
<title>2</title>
<path fill="none" stroke="#d8a456" stroke-width="2" d="M251.5,-180C251.5,-180 173.5,-180 173.5,-180 167.5,-180 161.5,-174 161.5,-168 161.5,-168 161.5,-156 161.5,-156 161.5,-150 167.5,-144 173.5,-144 173.5,-144 251.5,-144 251.5,-144 257.5,-144 263.5,-150 263.5,-156 263.5,-156 263.5,-168 263.5,-168 263.5,-174 257.5,-180 251.5,-180"/>
<text text-anchor="middle" x="212.5" y="-159.5" font-family="sans" font-size="10.00" fill="#000000">peakpick_sample</text>
</g>
<!-- 2&#45;&gt;1 -->
<g id="edge5" class="edge">
<title>2&#45;&gt;1</title>
<path fill="none" stroke="#c0c0c0" stroke-width="2" d="M223.0984,-143.8314C227.7877,-135.7925 233.4028,-126.1666 238.5798,-117.2918"/>
<polygon fill="#c0c0c0" stroke="#c0c0c0" stroke-width="2" points="241.7434,-118.8146 243.7589,-108.4133 235.6969,-115.2875 241.7434,-118.8146"/>
</g>
<!-- 3 -->
<g id="node4" class="node">
<title>3</title>
<path fill="none" stroke="#d8c356" stroke-width="2" stroke-dasharray="5,2" d="M141,-324C141,-324 64,-324 64,-324 58,-324 52,-318 52,-312 52,-312 52,-300 52,-300 52,-294 58,-288 64,-288 64,-288 141,-288 141,-288 147,-288 153,-294 153,-300 153,-300 153,-312 153,-312 153,-318 147,-324 141,-324"/>
<text text-anchor="middle" x="102.5" y="-303.5" font-family="sans" font-size="10.00" fill="#000000">factorize_sample</text>
</g>
<!-- 3&#45;&gt;2 -->
<g id="edge6" class="edge">
<title>3&#45;&gt;2</title>
<path fill="none" stroke="#c0c0c0" stroke-width="2" d="M111.2898,-287.8041C120.8407,-268.9187 137.205,-238.9829 155.5,-216 163.5917,-205.8349 173.5593,-195.7536 182.8844,-187.1028"/>
<polygon fill="#c0c0c0" stroke="#c0c0c0" stroke-width="2" points="185.444,-189.5069 190.5109,-180.2022 180.7475,-184.3163 185.444,-189.5069"/>
</g>
<!-- 30 -->
<g id="node31" class="node">
<title>30</title>
<path fill="none" stroke="#d85656" stroke-width="2" d="M248,-252C248,-252 177,-252 177,-252 171,-252 165,-246 165,-240 165,-240 165,-228 165,-228 165,-222 171,-216 177,-216 177,-216 248,-216 248,-216 254,-216 260,-222 260,-228 260,-228 260,-240 260,-240 260,-246 254,-252 248,-252"/>
<text text-anchor="middle" x="212.5" y="-231.5" font-family="sans" font-size="10.00" fill="#000000">smooth_sample</text>
</g>
<!-- 3&#45;&gt;30 -->
<g id="edge54" class="edge">
<title>3&#45;&gt;30</title>
<path fill="none" stroke="#c0c0c0" stroke-width="2" d="M130.2576,-287.8314C144.197,-278.7074 161.2598,-267.539 176.2231,-257.7449"/>
<polygon fill="#c0c0c0" stroke="#c0c0c0" stroke-width="2" points="178.301,-260.5679 184.7512,-252.1628 174.4674,-254.711 178.301,-260.5679"/>
</g>
<!-- 4 -->
<g id="node5" class="node">
<title>4</title>
<path fill="none" stroke="#9fd856" stroke-width="2" stroke-dasharray="5,2" d="M387.5,-396C387.5,-396 313.5,-396 313.5,-396 307.5,-396 301.5,-390 301.5,-384 301.5,-384 301.5,-372 301.5,-372 301.5,-366 307.5,-360 313.5,-360 313.5,-360 387.5,-360 387.5,-360 393.5,-360 399.5,-366 399.5,-372 399.5,-372 399.5,-384 399.5,-384 399.5,-390 393.5,-396 387.5,-396"/>
<text text-anchor="middle" x="350.5" y="-375.5" font-family="sans" font-size="10.00" fill="#000000">align_qc_sample</text>
</g>
<!-- 4&#45;&gt;3 -->
<g id="edge8" class="edge">
<title>4&#45;&gt;3</title>
<path fill="none" stroke="#c0c0c0" stroke-width="2" d="M301.3701,-364.0589C265.6358,-353.8801 215.8364,-339.6153 163.1042,-324.1622"/>
<polygon fill="#c0c0c0" stroke="#c0c0c0" stroke-width="2" points="163.8075,-320.721 153.2266,-321.2636 161.8364,-327.4378 163.8075,-320.721"/>
</g>
<!-- 31 -->
<g id="node32" class="node">
<title>31</title>
<path fill="none" stroke="#56c9d8" stroke-width="2" stroke-dasharray="5,2" d="M263.5,-324C263.5,-324 183.5,-324 183.5,-324 177.5,-324 171.5,-318 171.5,-312 171.5,-312 171.5,-300 171.5,-300 171.5,-294 177.5,-288 183.5,-288 183.5,-288 263.5,-288 263.5,-288 269.5,-288 275.5,-294 275.5,-300 275.5,-300 275.5,-312 275.5,-312 275.5,-318 269.5,-324 263.5,-324"/>
<text text-anchor="middle" x="223.5" y="-303.5" font-family="sans" font-size="10.00" fill="#000000">threshold_sample</text>
</g>
<!-- 4&#45;&gt;31 -->
<g id="edge56" class="edge">
<title>4&#45;&gt;31</title>
<path fill="none" stroke="#c0c0c0" stroke-width="2" d="M318.4525,-359.8314C302.058,-350.5368 281.9214,-339.1208 264.4171,-329.1971"/>
<polygon fill="#c0c0c0" stroke="#c0c0c0" stroke-width="2" points="265.9626,-326.05 255.5372,-324.1628 262.5103,-332.1395 265.9626,-326.05"/>
</g>
<!-- 5 -->
<g id="node6" class="node">
<title>5</title>
<path fill="none" stroke="#56a2d8" stroke-width="2" stroke-dasharray="5,2" d="M145,-473C145,-473 12,-473 12,-473 6,-473 0,-467 0,-461 0,-461 0,-444 0,-444 0,-438 6,-432 12,-432 12,-432 145,-432 145,-432 151,-432 157,-438 157,-444 157,-444 157,-461 157,-461 157,-467 151,-473 145,-473"/>
<text text-anchor="middle" x="78.5" y="-461" font-family="sans" font-size="10.00" fill="#000000">mzml2hdf</text>
<text text-anchor="middle" x="78.5" y="-450" font-family="sans" font-size="10.00" fill="#000000">id: 2022_05_10_NR46543_02</text>
<text text-anchor="middle" x="78.5" y="-439" font-family="sans" font-size="10.00" fill="#000000">sample_type: samples</text>
</g>
<!-- 5&#45;&gt;4 -->
<g id="edge9" class="edge">
<title>5&#45;&gt;4</title>
<path fill="none" stroke="#c0c0c0" stroke-width="2" d="M153.5452,-431.9453C197.1259,-420.0087 251.2357,-405.1882 291.7061,-394.1035"/>
<polygon fill="#c0c0c0" stroke="#c0c0c0" stroke-width="2" points="292.7048,-397.4589 301.425,-391.4415 290.8556,-390.7076 292.7048,-397.4589"/>
</g>
<!-- 6 -->
<g id="node7" class="node">
<title>6</title>
<path fill="none" stroke="#c6d856" stroke-width="2" stroke-dasharray="5,2" d="M596.5,-470.5C596.5,-470.5 546.5,-470.5 546.5,-470.5 540.5,-470.5 534.5,-464.5 534.5,-458.5 534.5,-458.5 534.5,-446.5 534.5,-446.5 534.5,-440.5 540.5,-434.5 546.5,-434.5 546.5,-434.5 596.5,-434.5 596.5,-434.5 602.5,-434.5 608.5,-440.5 608.5,-446.5 608.5,-446.5 608.5,-458.5 608.5,-458.5 608.5,-464.5 602.5,-470.5 596.5,-470.5"/>
<text text-anchor="middle" x="571.5" y="-450" font-family="sans" font-size="10.00" fill="#000000">align_qc_qc</text>
</g>
<!-- 6&#45;&gt;4 -->
<g id="edge10" class="edge">
<title>6&#45;&gt;4</title>
<path fill="none" stroke="#c0c0c0" stroke-width="2" d="M534.2503,-435.4477C531.3068,-434.2388 528.3652,-433.0748 525.5,-432 477.3458,-413.937 462.1308,-412.2083 409.1356,-396.1642"/>
<polygon fill="#c0c0c0" stroke="#c0c0c0" stroke-width="2" points="410.1316,-392.8088 399.5451,-393.23 408.0836,-399.5026 410.1316,-392.8088"/>
</g>
<!-- 35 -->
<g id="node36" class="node">
<title>35</title>
<path fill="none" stroke="#9fd856" stroke-width="2" stroke-dasharray="5,2" d="M503.5,-396C503.5,-396 429.5,-396 429.5,-396 423.5,-396 417.5,-390 417.5,-384 417.5,-384 417.5,-372 417.5,-372 417.5,-366 423.5,-360 429.5,-360 429.5,-360 503.5,-360 503.5,-360 509.5,-360 515.5,-366 515.5,-372 515.5,-372 515.5,-384 515.5,-384 515.5,-390 509.5,-396 503.5,-396"/>
<text text-anchor="middle" x="466.5" y="-375.5" font-family="sans" font-size="10.00" fill="#000000">align_qc_sample</text>
</g>
<!-- 6&#45;&gt;35 -->
<g id="edge62" class="edge">
<title>6&#45;&gt;35</title>
<path fill="none" stroke="#c0c0c0" stroke-width="2" d="M546.0824,-434.4656C532.3837,-424.7461 515.2974,-412.6229 500.4723,-402.1041"/>
<polygon fill="#c0c0c0" stroke="#c0c0c0" stroke-width="2" points="502.2284,-399.0587 492.0474,-396.1265 498.1778,-404.7677 502.2284,-399.0587"/>
</g>
<!-- 42 -->
<g id="node43" class="node">
<title>42</title>
<path fill="none" stroke="#9fd856" stroke-width="2" stroke-dasharray="5,2" d="M621.5,-396C621.5,-396 547.5,-396 547.5,-396 541.5,-396 535.5,-390 535.5,-384 535.5,-384 535.5,-372 535.5,-372 535.5,-366 541.5,-360 547.5,-360 547.5,-360 621.5,-360 621.5,-360 627.5,-360 633.5,-366 633.5,-372 633.5,-372 633.5,-384 633.5,-384 633.5,-390 627.5,-396 621.5,-396"/>
<text text-anchor="middle" x="584.5" y="-375.5" font-family="sans" font-size="10.00" fill="#000000">align_qc_sample</text>
</g>
<!-- 6&#45;&gt;42 -->
<g id="edge74" class="edge">
<title>6&#45;&gt;42</title>
<path fill="none" stroke="#c0c0c0" stroke-width="2" d="M574.6469,-434.4656C576.1369,-425.927 577.9506,-415.5333 579.6138,-406.002"/>
<polygon fill="#c0c0c0" stroke="#c0c0c0" stroke-width="2" points="583.0658,-406.5793 581.337,-396.1265 576.17,-405.376 583.0658,-406.5793"/>
</g>
<!-- 49 -->
<g id="node50" class="node">
<title>49</title>
<path fill="none" stroke="#9fd856" stroke-width="2" stroke-dasharray="5,2" d="M737.5,-396C737.5,-396 663.5,-396 663.5,-396 657.5,-396 651.5,-390 651.5,-384 651.5,-384 651.5,-372 651.5,-372 651.5,-366 657.5,-360 663.5,-360 663.5,-360 737.5,-360 737.5,-360 743.5,-360 749.5,-366 749.5,-372 749.5,-372 749.5,-384 749.5,-384 749.5,-390 743.5,-396 737.5,-396"/>
<text text-anchor="middle" x="700.5" y="-375.5" font-family="sans" font-size="10.00" fill="#000000">align_qc_sample</text>
</g>
<!-- 6&#45;&gt;49 -->
<g id="edge86" class="edge">
<title>6&#45;&gt;49</title>
<path fill="none" stroke="#c0c0c0" stroke-width="2" d="M602.7273,-434.4656C620.029,-424.4736 641.7292,-411.9413 660.2879,-401.2233"/>
<polygon fill="#c0c0c0" stroke="#c0c0c0" stroke-width="2" points="662.2039,-404.1585 669.1132,-396.1265 658.7031,-398.0968 662.2039,-404.1585"/>
</g>
<!-- 7 -->
<g id="node8" class="node">
<title>7</title>
<path fill="none" stroke="#78d856" stroke-width="2" stroke-dasharray="5,2" d="M409,-545C409,-545 356,-545 356,-545 350,-545 344,-539 344,-533 344,-533 344,-521 344,-521 344,-515 350,-509 356,-509 356,-509 409,-509 409,-509 415,-509 421,-515 421,-521 421,-521 421,-533 421,-533 421,-539 415,-545 409,-545"/>
<text text-anchor="middle" x="382.5" y="-524.5" font-family="sans" font-size="10.00" fill="#000000">peakpick_qc</text>
</g>
<!-- 7&#45;&gt;6 -->
<g id="edge14" class="edge">
<title>7&#45;&gt;6</title>
<path fill="none" stroke="#c0c0c0" stroke-width="2" d="M421.2072,-512.4467C455.609,-499.5041 502.9663,-481.6647 525.1334,-472.9675"/>
<polygon fill="#c0c0c0" stroke="#c0c0c0" stroke-width="2" points="526.4419,-476.2138 534.4228,-469.2455 523.8384,-469.7159 526.4419,-476.2138"/>
</g>
<!-- 27 -->
<g id="node28" class="node">
<title>27</title>
<path fill="none" stroke="#c6d856" stroke-width="2" stroke-dasharray="5,2" d="M688.5,-470.5C688.5,-470.5 638.5,-470.5 638.5,-470.5 632.5,-470.5 626.5,-464.5 626.5,-458.5 626.5,-458.5 626.5,-446.5 626.5,-446.5 626.5,-440.5 632.5,-434.5 638.5,-434.5 638.5,-434.5 688.5,-434.5 688.5,-434.5 694.5,-434.5 700.5,-440.5 700.5,-446.5 700.5,-446.5 700.5,-458.5 700.5,-458.5 700.5,-464.5 694.5,-470.5 688.5,-470.5"/>
<text text-anchor="middle" x="663.5" y="-450" font-family="sans" font-size="10.00" fill="#000000">align_qc_qc</text>
</g>
<!-- 7&#45;&gt;27 -->
<g id="edge43" class="edge">
<title>7&#45;&gt;27</title>
<path fill="none" stroke="#c0c0c0" stroke-width="2" d="M421.0863,-511.8918C424.25,-510.8486 427.4159,-509.8684 430.5,-509 508.9457,-486.9108 534.8435,-497.5258 616.6565,-472.9096"/>
<polygon fill="#c0c0c0" stroke="#c0c0c0" stroke-width="2" points="617.8531,-476.2031 626.371,-469.9026 615.7832,-469.5161 617.8531,-476.2031"/>
</g>
<!-- 28 -->
<g id="node29" class="node">
<title>28</title>
<path fill="none" stroke="#c6d856" stroke-width="2" stroke-dasharray="5,2" d="M412.5,-470.5C412.5,-470.5 362.5,-470.5 362.5,-470.5 356.5,-470.5 350.5,-464.5 350.5,-458.5 350.5,-458.5 350.5,-446.5 350.5,-446.5 350.5,-440.5 356.5,-434.5 362.5,-434.5 362.5,-434.5 412.5,-434.5 412.5,-434.5 418.5,-434.5 424.5,-440.5 424.5,-446.5 424.5,-446.5 424.5,-458.5 424.5,-458.5 424.5,-464.5 418.5,-470.5 412.5,-470.5"/>
<text text-anchor="middle" x="387.5" y="-450" font-family="sans" font-size="10.00" fill="#000000">align_qc_qc</text>
</g>
<!-- 7&#45;&gt;28 -->
<g id="edge47" class="edge">
<title>7&#45;&gt;28</title>
<path fill="none" stroke="#c0c0c0" stroke-width="2" d="M383.7104,-508.9656C384.2773,-500.5178 384.9662,-490.2542 385.6002,-480.8064"/>
<polygon fill="#c0c0c0" stroke="#c0c0c0" stroke-width="2" points="389.1059,-480.8385 386.2835,-470.6265 382.1216,-480.3697 389.1059,-480.8385"/>
</g>
<!-- 29 -->
<g id="node30" class="node">
<title>29</title>
<path fill="none" stroke="#c6d856" stroke-width="2" stroke-dasharray="5,2" d="M504.5,-470.5C504.5,-470.5 454.5,-470.5 454.5,-470.5 448.5,-470.5 442.5,-464.5 442.5,-458.5 442.5,-458.5 442.5,-446.5 442.5,-446.5 442.5,-440.5 448.5,-434.5 454.5,-434.5 454.5,-434.5 504.5,-434.5 504.5,-434.5 510.5,-434.5 516.5,-440.5 516.5,-446.5 516.5,-446.5 516.5,-458.5 516.5,-458.5 516.5,-464.5 510.5,-470.5 504.5,-470.5"/>
<text text-anchor="middle" x="479.5" y="-450" font-family="sans" font-size="10.00" fill="#000000">align_qc_qc</text>
</g>
<!-- 7&#45;&gt;29 -->
<g id="edge51" class="edge">
<title>7&#45;&gt;29</title>
<path fill="none" stroke="#c0c0c0" stroke-width="2" d="M405.981,-508.9656C418.5177,-499.3369 434.1257,-487.3493 447.7316,-476.8995"/>
<polygon fill="#c0c0c0" stroke="#c0c0c0" stroke-width="2" points="450.1001,-479.4935 455.899,-470.6265 445.8363,-473.9419 450.1001,-479.4935"/>
</g>
<!-- 8 -->
<g id="node9" class="node">
<title>8</title>
<path fill="none" stroke="#56d8a2" stroke-width="2" stroke-dasharray="5,2" d="M231.5,-689C231.5,-689 179.5,-689 179.5,-689 173.5,-689 167.5,-683 167.5,-677 167.5,-677 167.5,-665 167.5,-665 167.5,-659 173.5,-653 179.5,-653 179.5,-653 231.5,-653 231.5,-653 237.5,-653 243.5,-659 243.5,-665 243.5,-665 243.5,-677 243.5,-677 243.5,-683 237.5,-689 231.5,-689"/>
<text text-anchor="middle" x="205.5" y="-668.5" font-family="sans" font-size="10.00" fill="#000000">factorize_qc</text>
</g>
<!-- 8&#45;&gt;7 -->
<g id="edge18" class="edge">
<title>8&#45;&gt;7</title>
<path fill="none" stroke="#c0c0c0" stroke-width="2" d="M211.9655,-652.8353C219.9028,-632.8464 235.1246,-600.9168 257.5,-581 279.3239,-561.574 309.2107,-548.3188 334.2883,-539.8038"/>
<polygon fill="#c0c0c0" stroke="#c0c0c0" stroke-width="2" points="335.5563,-543.0721 343.9906,-536.6601 333.3986,-536.413 335.5563,-543.0721"/>
</g>
<!-- 10 -->
<g id="node11" class="node">
<title>10</title>
<path fill="none" stroke="#56d8c9" stroke-width="2" stroke-dasharray="5,2" d="M324.5,-617C324.5,-617 278.5,-617 278.5,-617 272.5,-617 266.5,-611 266.5,-605 266.5,-605 266.5,-593 266.5,-593 266.5,-587 272.5,-581 278.5,-581 278.5,-581 324.5,-581 324.5,-581 330.5,-581 336.5,-587 336.5,-593 336.5,-593 336.5,-605 336.5,-605 336.5,-611 330.5,-617 324.5,-617"/>
<text text-anchor="middle" x="301.5" y="-596.5" font-family="sans" font-size="10.00" fill="#000000">smooth_qc</text>
</g>
<!-- 8&#45;&gt;10 -->
<g id="edge21" class="edge">
<title>8&#45;&gt;10</title>
<path fill="none" stroke="#c0c0c0" stroke-width="2" d="M229.7249,-652.8314C241.6628,-643.8779 256.2256,-632.9558 269.106,-623.2955"/>
<polygon fill="#c0c0c0" stroke="#c0c0c0" stroke-width="2" points="271.3829,-625.9629 277.2829,-617.1628 267.1829,-620.3629 271.3829,-625.9629"/>
</g>
<!-- 9 -->
<g id="node10" class="node">
<title>9</title>
<path fill="none" stroke="#56a2d8" stroke-width="2" stroke-dasharray="5,2" d="M304,-766C304,-766 201,-766 201,-766 195,-766 189,-760 189,-754 189,-754 189,-737 189,-737 189,-731 195,-725 201,-725 201,-725 304,-725 304,-725 310,-725 316,-731 316,-737 316,-737 316,-754 316,-754 316,-760 310,-766 304,-766"/>
<text text-anchor="middle" x="252.5" y="-754" font-family="sans" font-size="10.00" fill="#000000">mzml2hdf</text>
<text text-anchor="middle" x="252.5" y="-743" font-family="sans" font-size="10.00" fill="#000000">id: 2022_05_10_QC_04</text>
<text text-anchor="middle" x="252.5" y="-732" font-family="sans" font-size="10.00" fill="#000000">sample_type: qc</text>
</g>
<!-- 9&#45;&gt;8 -->
<g id="edge20" class="edge">
<title>9&#45;&gt;8</title>
<path fill="none" stroke="#c0c0c0" stroke-width="2" d="M239.4079,-724.7476C234.1113,-716.352 227.9308,-706.5551 222.3079,-697.6423"/>
<polygon fill="#c0c0c0" stroke="#c0c0c0" stroke-width="2" points="225.2201,-695.6988 216.9243,-689.1087 219.2998,-699.4338 225.2201,-695.6988"/>
</g>
<!-- 11 -->
<g id="node12" class="node">
<title>11</title>
<path fill="none" stroke="#d87d56" stroke-width="2" stroke-dasharray="5,2" d="M329,-689C329,-689 274,-689 274,-689 268,-689 262,-683 262,-677 262,-677 262,-665 262,-665 262,-659 268,-653 274,-653 274,-653 329,-653 329,-653 335,-653 341,-659 341,-665 341,-665 341,-677 341,-677 341,-683 335,-689 329,-689"/>
<text text-anchor="middle" x="301.5" y="-668.5" font-family="sans" font-size="10.00" fill="#000000">threshold_qc</text>
</g>
<!-- 9&#45;&gt;11 -->
<g id="edge23" class="edge">
<title>9&#45;&gt;11</title>
<path fill="none" stroke="#c0c0c0" stroke-width="2" d="M266.1492,-724.7476C271.6712,-716.352 278.1147,-706.5551 283.9769,-697.6423"/>
<polygon fill="#c0c0c0" stroke="#c0c0c0" stroke-width="2" points="287.0186,-699.3868 289.5896,-689.1087 281.1702,-695.5402 287.0186,-699.3868"/>
</g>
<!-- 10&#45;&gt;7 -->
<g id="edge19" class="edge">
<title>10&#45;&gt;7</title>
<path fill="none" stroke="#c0c0c0" stroke-width="2" d="M321.9397,-580.8314C331.8205,-572.0485 343.8324,-561.3712 354.545,-551.8489"/>
<polygon fill="#c0c0c0" stroke="#c0c0c0" stroke-width="2" points="356.918,-554.4224 362.0668,-545.1628 352.2674,-549.1906 356.918,-554.4224"/>
</g>
<!-- 11&#45;&gt;10 -->
<g id="edge22" class="edge">
<title>11&#45;&gt;10</title>
<path fill="none" stroke="#c0c0c0" stroke-width="2" d="M301.5,-652.8314C301.5,-645.131 301.5,-635.9743 301.5,-627.4166"/>
<polygon fill="#c0c0c0" stroke="#c0c0c0" stroke-width="2" points="305.0001,-627.4132 301.5,-617.4133 298.0001,-627.4133 305.0001,-627.4132"/>
</g>
<!-- 12 -->
<g id="node13" class="node">
<title>12</title>
<path fill="none" stroke="#78d856" stroke-width="2" stroke-dasharray="5,2" d="M504,-545C504,-545 451,-545 451,-545 445,-545 439,-539 439,-533 439,-533 439,-521 439,-521 439,-515 445,-509 451,-509 451,-509 504,-509 504,-509 510,-509 516,-515 516,-521 516,-521 516,-533 516,-533 516,-539 510,-545 504,-545"/>
<text text-anchor="middle" x="477.5" y="-524.5" font-family="sans" font-size="10.00" fill="#000000">peakpick_qc</text>
</g>
<!-- 12&#45;&gt;6 -->
<g id="edge15" class="edge">
<title>12&#45;&gt;6</title>
<path fill="none" stroke="#c0c0c0" stroke-width="2" d="M500.2548,-508.9656C512.4038,-499.3369 527.529,-487.3493 540.7141,-476.8995"/>
<polygon fill="#c0c0c0" stroke="#c0c0c0" stroke-width="2" points="542.9658,-479.5808 548.629,-470.6265 538.6179,-474.0949 542.9658,-479.5808"/>
</g>
<!-- 12&#45;&gt;27 -->
<g id="edge42" class="edge">
<title>12&#45;&gt;27</title>
<path fill="none" stroke="#c0c0c0" stroke-width="2" d="M516.3075,-512.2861C547.2089,-500.528 588.7828,-484.6067 617.0208,-473.0962"/>
<polygon fill="#c0c0c0" stroke="#c0c0c0" stroke-width="2" points="618.503,-476.2709 626.4134,-469.2228 615.8343,-469.7996 618.503,-476.2709"/>
</g>
<!-- 12&#45;&gt;28 -->
<g id="edge48" class="edge">
<title>12&#45;&gt;28</title>
<path fill="none" stroke="#c0c0c0" stroke-width="2" d="M455.7135,-508.9656C444.1912,-499.4277 429.8729,-487.5753 417.3337,-477.1956"/>
<polygon fill="#c0c0c0" stroke="#c0c0c0" stroke-width="2" points="419.3328,-474.307 409.3978,-470.6265 414.8692,-479.6992 419.3328,-474.307"/>
</g>
<!-- 12&#45;&gt;29 -->
<g id="edge52" class="edge">
<title>12&#45;&gt;29</title>
<path fill="none" stroke="#c0c0c0" stroke-width="2" d="M477.9841,-508.9656C478.2109,-500.5178 478.4865,-490.2542 478.7401,-480.8064"/>
<polygon fill="#c0c0c0" stroke="#c0c0c0" stroke-width="2" points="482.2437,-480.7169 479.0134,-470.6265 475.2462,-480.5289 482.2437,-480.7169"/>
</g>
<!-- 13 -->
<g id="node14" class="node">
<title>13</title>
<path fill="none" stroke="#56d8a2" stroke-width="2" stroke-dasharray="5,2" d="M423.5,-689C423.5,-689 371.5,-689 371.5,-689 365.5,-689 359.5,-683 359.5,-677 359.5,-677 359.5,-665 359.5,-665 359.5,-659 365.5,-653 371.5,-653 371.5,-653 423.5,-653 423.5,-653 429.5,-653 435.5,-659 435.5,-665 435.5,-665 435.5,-677 435.5,-677 435.5,-683 429.5,-689 423.5,-689"/>
<text text-anchor="middle" x="397.5" y="-668.5" font-family="sans" font-size="10.00" fill="#000000">factorize_qc</text>
</g>
<!-- 13&#45;&gt;12 -->
<g id="edge24" class="edge">
<title>13&#45;&gt;12</title>
<path fill="none" stroke="#c0c0c0" stroke-width="2" d="M403.0143,-652.6626C409.0589,-633.9257 419.7538,-604.3481 433.5,-581 439.1724,-571.3654 446.4864,-561.6467 453.5165,-553.1614"/>
<polygon fill="#c0c0c0" stroke="#c0c0c0" stroke-width="2" points="456.2727,-555.3236 460.1068,-545.4468 450.9503,-550.7768 456.2727,-555.3236"/>
</g>
<!-- 15 -->
<g id="node16" class="node">
<title>15</title>
<path fill="none" stroke="#56d8c9" stroke-width="2" stroke-dasharray="5,2" d="M500.5,-617C500.5,-617 454.5,-617 454.5,-617 448.5,-617 442.5,-611 442.5,-605 442.5,-605 442.5,-593 442.5,-593 442.5,-587 448.5,-581 454.5,-581 454.5,-581 500.5,-581 500.5,-581 506.5,-581 512.5,-587 512.5,-593 512.5,-593 512.5,-605 512.5,-605 512.5,-611 506.5,-617 500.5,-617"/>
<text text-anchor="middle" x="477.5" y="-596.5" font-family="sans" font-size="10.00" fill="#000000">smooth_qc</text>
</g>
<!-- 13&#45;&gt;15 -->
<g id="edge27" class="edge">
<title>13&#45;&gt;15</title>
<path fill="none" stroke="#c0c0c0" stroke-width="2" d="M417.6874,-652.8314C427.3514,-644.1337 439.0796,-633.5783 449.5816,-624.1265"/>
<polygon fill="#c0c0c0" stroke="#c0c0c0" stroke-width="2" points="452.2275,-626.454 457.3191,-617.1628 447.5447,-621.251 452.2275,-626.454"/>
</g>
<!-- 14 -->
<g id="node15" class="node">
<title>14</title>
<path fill="none" stroke="#56a2d8" stroke-width="2" stroke-dasharray="5,2" d="M472,-766C472,-766 369,-766 369,-766 363,-766 357,-760 357,-754 357,-754 357,-737 357,-737 357,-731 363,-725 369,-725 369,-725 472,-725 472,-725 478,-725 484,-731 484,-737 484,-737 484,-754 484,-754 484,-760 478,-766 472,-766"/>
<text text-anchor="middle" x="420.5" y="-754" font-family="sans" font-size="10.00" fill="#000000">mzml2hdf</text>
<text text-anchor="middle" x="420.5" y="-743" font-family="sans" font-size="10.00" fill="#000000">id: 2022_05_10_QC_05</text>
<text text-anchor="middle" x="420.5" y="-732" font-family="sans" font-size="10.00" fill="#000000">sample_type: qc</text>
</g>
<!-- 14&#45;&gt;13 -->
<g id="edge26" class="edge">
<title>14&#45;&gt;13</title>
<path fill="none" stroke="#c0c0c0" stroke-width="2" d="M414.0932,-724.7476C411.6093,-716.7018 408.728,-707.3691 406.0705,-698.7608"/>
<polygon fill="#c0c0c0" stroke="#c0c0c0" stroke-width="2" points="409.3848,-697.6312 403.0906,-689.1087 402.6963,-699.6962 409.3848,-697.6312"/>
</g>
<!-- 16 -->
<g id="node17" class="node">
<title>16</title>
<path fill="none" stroke="#d87d56" stroke-width="2" stroke-dasharray="5,2" d="M521,-689C521,-689 466,-689 466,-689 460,-689 454,-683 454,-677 454,-677 454,-665 454,-665 454,-659 460,-653 466,-653 466,-653 521,-653 521,-653 527,-653 533,-659 533,-665 533,-665 533,-677 533,-677 533,-683 527,-689 521,-689"/>
<text text-anchor="middle" x="493.5" y="-668.5" font-family="sans" font-size="10.00" fill="#000000">threshold_qc</text>
</g>
<!-- 14&#45;&gt;16 -->
<g id="edge29" class="edge">
<title>14&#45;&gt;16</title>
<path fill="none" stroke="#c0c0c0" stroke-width="2" d="M440.8346,-724.7476C449.4896,-715.9147 459.6644,-705.5308 468.7514,-696.2571"/>
<polygon fill="#c0c0c0" stroke="#c0c0c0" stroke-width="2" points="471.257,-698.7009 475.7559,-689.1087 466.2572,-693.8017 471.257,-698.7009"/>
</g>
<!-- 15&#45;&gt;12 -->
<g id="edge25" class="edge">
<title>15&#45;&gt;12</title>
<path fill="none" stroke="#c0c0c0" stroke-width="2" d="M477.5,-580.8314C477.5,-573.131 477.5,-563.9743 477.5,-555.4166"/>
<polygon fill="#c0c0c0" stroke="#c0c0c0" stroke-width="2" points="481.0001,-555.4132 477.5,-545.4133 474.0001,-555.4133 481.0001,-555.4132"/>
</g>
<!-- 16&#45;&gt;15 -->
<g id="edge28" class="edge">
<title>16&#45;&gt;15</title>
<path fill="none" stroke="#c0c0c0" stroke-width="2" d="M489.4625,-652.8314C487.7513,-645.131 485.7165,-635.9743 483.8148,-627.4166"/>
<polygon fill="#c0c0c0" stroke="#c0c0c0" stroke-width="2" points="487.1779,-626.4159 481.5918,-617.4133 480.3446,-627.9344 487.1779,-626.4159"/>
</g>
<!-- 17 -->
<g id="node18" class="node">
<title>17</title>
<path fill="none" stroke="#78d856" stroke-width="2" stroke-dasharray="5,2" d="M599,-545C599,-545 546,-545 546,-545 540,-545 534,-539 534,-533 534,-533 534,-521 534,-521 534,-515 540,-509 546,-509 546,-509 599,-509 599,-509 605,-509 611,-515 611,-521 611,-521 611,-533 611,-533 611,-539 605,-545 599,-545"/>
<text text-anchor="middle" x="572.5" y="-524.5" font-family="sans" font-size="10.00" fill="#000000">peakpick_qc</text>
</g>
<!-- 17&#45;&gt;6 -->
<g id="edge16" class="edge">
<title>17&#45;&gt;6</title>
<path fill="none" stroke="#c0c0c0" stroke-width="2" d="M572.2579,-508.9656C572.1445,-500.5178 572.0068,-490.2542 571.88,-480.8064"/>
<polygon fill="#c0c0c0" stroke="#c0c0c0" stroke-width="2" points="575.3773,-480.5786 571.7433,-470.6265 568.3779,-480.6726 575.3773,-480.5786"/>
</g>
<!-- 17&#45;&gt;27 -->
<g id="edge44" class="edge">
<title>17&#45;&gt;27</title>
<path fill="none" stroke="#c0c0c0" stroke-width="2" d="M594.5286,-508.9656C606.1789,-499.4277 620.6563,-487.5753 633.3349,-477.1956"/>
<polygon fill="#c0c0c0" stroke="#c0c0c0" stroke-width="2" points="635.8383,-479.6694 641.3589,-470.6265 631.404,-474.253 635.8383,-479.6694"/>
</g>
<!-- 17&#45;&gt;28 -->
<g id="edge46" class="edge">
<title>17&#45;&gt;28</title>
<path fill="none" stroke="#c0c0c0" stroke-width="2" d="M533.9547,-512.1363C501.4223,-499.5758 457.4075,-482.5414 434.0212,-473.0881"/>
<polygon fill="#c0c0c0" stroke="#c0c0c0" stroke-width="2" points="435.1698,-469.7762 424.5898,-469.215 432.5107,-476.2515 435.1698,-469.7762"/>
</g>
<!-- 17&#45;&gt;29 -->
<g id="edge53" class="edge">
<title>17&#45;&gt;29</title>
<path fill="none" stroke="#c0c0c0" stroke-width="2" d="M549.9873,-508.9656C537.9676,-499.3369 523.0032,-487.3493 509.9584,-476.8995"/>
<polygon fill="#c0c0c0" stroke="#c0c0c0" stroke-width="2" points="512.1206,-474.147 502.1277,-470.6265 507.7441,-479.6102 512.1206,-474.147"/>
</g>
<!-- 18 -->
<g id="node19" class="node">
<title>18</title>
<path fill="none" stroke="#56d8a2" stroke-width="2" stroke-dasharray="5,2" d="M615.5,-689C615.5,-689 563.5,-689 563.5,-689 557.5,-689 551.5,-683 551.5,-677 551.5,-677 551.5,-665 551.5,-665 551.5,-659 557.5,-653 563.5,-653 563.5,-653 615.5,-653 615.5,-653 621.5,-653 627.5,-659 627.5,-665 627.5,-665 627.5,-677 627.5,-677 627.5,-683 621.5,-689 615.5,-689"/>
<text text-anchor="middle" x="589.5" y="-668.5" font-family="sans" font-size="10.00" fill="#000000">factorize_qc</text>
</g>
<!-- 18&#45;&gt;17 -->
<g id="edge30" class="edge">
<title>18&#45;&gt;17</title>
<path fill="none" stroke="#c0c0c0" stroke-width="2" d="M587.3469,-652.7623C584.4473,-628.201 579.2584,-584.2474 575.8474,-555.3541"/>
<polygon fill="#c0c0c0" stroke="#c0c0c0" stroke-width="2" points="579.2839,-554.6103 574.6356,-545.0896 572.3322,-555.431 579.2839,-554.6103"/>
</g>
<!-- 20 -->
<g id="node21" class="node">
<title>20</title>
<path fill="none" stroke="#56d8c9" stroke-width="2" stroke-dasharray="5,2" d="M658.5,-617C658.5,-617 612.5,-617 612.5,-617 606.5,-617 600.5,-611 600.5,-605 600.5,-605 600.5,-593 600.5,-593 600.5,-587 606.5,-581 612.5,-581 612.5,-581 658.5,-581 658.5,-581 664.5,-581 670.5,-587 670.5,-593 670.5,-593 670.5,-605 670.5,-605 670.5,-611 664.5,-617 658.5,-617"/>
<text text-anchor="middle" x="635.5" y="-596.5" font-family="sans" font-size="10.00" fill="#000000">smooth_qc</text>
</g>
<!-- 18&#45;&gt;20 -->
<g id="edge33" class="edge">
<title>18&#45;&gt;20</title>
<path fill="none" stroke="#c0c0c0" stroke-width="2" d="M601.1077,-652.8314C606.2978,-644.7079 612.5232,-634.9637 618.2425,-626.0118"/>
<polygon fill="#c0c0c0" stroke="#c0c0c0" stroke-width="2" points="621.3015,-627.7246 623.736,-617.4133 615.4026,-623.9559 621.3015,-627.7246"/>
</g>
<!-- 19 -->
<g id="node20" class="node">
<title>19</title>
<path fill="none" stroke="#56a2d8" stroke-width="2" stroke-dasharray="5,2" d="M664,-766C664,-766 561,-766 561,-766 555,-766 549,-760 549,-754 549,-754 549,-737 549,-737 549,-731 555,-725 561,-725 561,-725 664,-725 664,-725 670,-725 676,-731 676,-737 676,-737 676,-754 676,-754 676,-760 670,-766 664,-766"/>
<text text-anchor="middle" x="612.5" y="-754" font-family="sans" font-size="10.00" fill="#000000">mzml2hdf</text>
<text text-anchor="middle" x="612.5" y="-743" font-family="sans" font-size="10.00" fill="#000000">id: 2022_05_10_QC_06</text>
<text text-anchor="middle" x="612.5" y="-732" font-family="sans" font-size="10.00" fill="#000000">sample_type: qc</text>
</g>
<!-- 19&#45;&gt;18 -->
<g id="edge32" class="edge">
<title>19&#45;&gt;18</title>
<path fill="none" stroke="#c0c0c0" stroke-width="2" d="M606.0932,-724.7476C603.6093,-716.7018 600.728,-707.3691 598.0705,-698.7608"/>
<polygon fill="#c0c0c0" stroke="#c0c0c0" stroke-width="2" points="601.3848,-697.6312 595.0906,-689.1087 594.6963,-699.6962 601.3848,-697.6312"/>
</g>
<!-- 21 -->
<g id="node22" class="node">
<title>21</title>
<path fill="none" stroke="#d87d56" stroke-width="2" stroke-dasharray="5,2" d="M713,-689C713,-689 658,-689 658,-689 652,-689 646,-683 646,-677 646,-677 646,-665 646,-665 646,-659 652,-653 658,-653 658,-653 713,-653 713,-653 719,-653 725,-659 725,-665 725,-665 725,-677 725,-677 725,-683 719,-689 713,-689"/>
<text text-anchor="middle" x="685.5" y="-668.5" font-family="sans" font-size="10.00" fill="#000000">threshold_qc</text>
</g>
<!-- 19&#45;&gt;21 -->
<g id="edge35" class="edge">
<title>19&#45;&gt;21</title>
<path fill="none" stroke="#c0c0c0" stroke-width="2" d="M632.8346,-724.7476C641.4896,-715.9147 651.6644,-705.5308 660.7514,-696.2571"/>
<polygon fill="#c0c0c0" stroke="#c0c0c0" stroke-width="2" points="663.257,-698.7009 667.7559,-689.1087 658.2572,-693.8017 663.257,-698.7009"/>
</g>
<!-- 20&#45;&gt;17 -->
<g id="edge31" class="edge">
<title>20&#45;&gt;17</title>
<path fill="none" stroke="#c0c0c0" stroke-width="2" d="M619.6024,-580.8314C612.2722,-572.454 603.434,-562.3531 595.4031,-553.1749"/>
<polygon fill="#c0c0c0" stroke="#c0c0c0" stroke-width="2" points="597.8307,-550.6343 588.6116,-545.4133 592.5627,-555.2438 597.8307,-550.6343"/>
</g>
<!-- 21&#45;&gt;20 -->
<g id="edge34" class="edge">
<title>21&#45;&gt;20</title>
<path fill="none" stroke="#c0c0c0" stroke-width="2" d="M672.8829,-652.8314C667.1828,-644.6232 660.3337,-634.7606 654.0641,-625.7323"/>
<polygon fill="#c0c0c0" stroke="#c0c0c0" stroke-width="2" points="656.8658,-623.6306 648.287,-617.4133 651.1162,-627.6234 656.8658,-623.6306"/>
</g>
<!-- 22 -->
<g id="node23" class="node">
<title>22</title>
<path fill="none" stroke="#78d856" stroke-width="2" stroke-dasharray="5,2" d="M694,-545C694,-545 641,-545 641,-545 635,-545 629,-539 629,-533 629,-533 629,-521 629,-521 629,-515 635,-509 641,-509 641,-509 694,-509 694,-509 700,-509 706,-515 706,-521 706,-521 706,-533 706,-533 706,-539 700,-545 694,-545"/>
<text text-anchor="middle" x="667.5" y="-524.5" font-family="sans" font-size="10.00" fill="#000000">peakpick_qc</text>
</g>
<!-- 22&#45;&gt;6 -->
<g id="edge17" class="edge">
<title>22&#45;&gt;6</title>
<path fill="none" stroke="#c0c0c0" stroke-width="2" d="M644.2611,-508.9656C631.8536,-499.3369 616.4065,-487.3493 602.9409,-476.8995"/>
<polygon fill="#c0c0c0" stroke="#c0c0c0" stroke-width="2" points="604.9036,-473.9923 594.8577,-470.6265 600.612,-479.5225 604.9036,-473.9923"/>
</g>
<!-- 22&#45;&gt;27 -->
<g id="edge45" class="edge">
<title>22&#45;&gt;27</title>
<path fill="none" stroke="#c0c0c0" stroke-width="2" d="M666.5317,-508.9656C666.0781,-500.5178 665.5271,-490.2542 665.0198,-480.8064"/>
<polygon fill="#c0c0c0" stroke="#c0c0c0" stroke-width="2" points="668.5044,-480.4244 664.4732,-470.6265 661.5145,-480.7998 668.5044,-480.4244"/>
</g>
<!-- 22&#45;&gt;28 -->
<g id="edge49" class="edge">
<title>22&#45;&gt;28</title>
<path fill="none" stroke="#c0c0c0" stroke-width="2" d="M628.9535,-511.6213C626.1116,-510.6775 623.2727,-509.7912 620.5,-509 542.1318,-486.6373 516.1622,-497.5055 434.3438,-472.9084"/>
<polygon fill="#c0c0c0" stroke="#c0c0c0" stroke-width="2" points="435.2168,-469.5149 424.629,-469.9026 433.1476,-476.2021 435.2168,-469.5149"/>
</g>
<!-- 22&#45;&gt;29 -->
<g id="edge50" class="edge">
<title>22&#45;&gt;29</title>
<path fill="none" stroke="#c0c0c0" stroke-width="2" d="M628.7755,-512.157C625.9753,-511.0875 623.1945,-510.0265 620.5,-509 581.0255,-493.9617 568.8037,-490.604 525.9016,-473.075"/>
<polygon fill="#c0c0c0" stroke="#c0c0c0" stroke-width="2" points="527.1585,-469.8075 516.5787,-469.2418 524.4965,-476.2816 527.1585,-469.8075"/>
</g>
<!-- 23 -->
<g id="node24" class="node">
<title>23</title>
<path fill="none" stroke="#56d8a2" stroke-width="2" stroke-dasharray="5,2" d="M807.5,-689C807.5,-689 755.5,-689 755.5,-689 749.5,-689 743.5,-683 743.5,-677 743.5,-677 743.5,-665 743.5,-665 743.5,-659 749.5,-653 755.5,-653 755.5,-653 807.5,-653 807.5,-653 813.5,-653 819.5,-659 819.5,-665 819.5,-665 819.5,-677 819.5,-677 819.5,-683 813.5,-689 807.5,-689"/>
<text text-anchor="middle" x="781.5" y="-668.5" font-family="sans" font-size="10.00" fill="#000000">factorize_qc</text>
</g>
<!-- 23&#45;&gt;22 -->
<g id="edge36" class="edge">
<title>23&#45;&gt;22</title>
<path fill="none" stroke="#c0c0c0" stroke-width="2" d="M766.3265,-652.5894C757.7977,-642.1885 746.9905,-628.9208 737.5,-617 720.5475,-595.7064 701.6117,-571.323 687.7136,-553.3118"/>
<polygon fill="#c0c0c0" stroke="#c0c0c0" stroke-width="2" points="690.2027,-550.8079 681.3263,-545.0233 684.658,-555.0807 690.2027,-550.8079"/>
</g>
<!-- 25 -->
<g id="node26" class="node">
<title>25</title>
<path fill="none" stroke="#56d8c9" stroke-width="2" stroke-dasharray="5,2" d="M804.5,-617C804.5,-617 758.5,-617 758.5,-617 752.5,-617 746.5,-611 746.5,-605 746.5,-605 746.5,-593 746.5,-593 746.5,-587 752.5,-581 758.5,-581 758.5,-581 804.5,-581 804.5,-581 810.5,-581 816.5,-587 816.5,-593 816.5,-593 816.5,-605 816.5,-605 816.5,-611 810.5,-617 804.5,-617"/>
<text text-anchor="middle" x="781.5" y="-596.5" font-family="sans" font-size="10.00" fill="#000000">smooth_qc</text>
</g>
<!-- 23&#45;&gt;25 -->
<g id="edge39" class="edge">
<title>23&#45;&gt;25</title>
<path fill="none" stroke="#c0c0c0" stroke-width="2" d="M781.5,-652.8314C781.5,-645.131 781.5,-635.9743 781.5,-627.4166"/>
<polygon fill="#c0c0c0" stroke="#c0c0c0" stroke-width="2" points="785.0001,-627.4132 781.5,-617.4133 778.0001,-627.4133 785.0001,-627.4132"/>
</g>
<!-- 24 -->
<g id="node25" class="node">
<title>24</title>
<path fill="none" stroke="#56a2d8" stroke-width="2" stroke-dasharray="5,2" d="M881,-766C881,-766 778,-766 778,-766 772,-766 766,-760 766,-754 766,-754 766,-737 766,-737 766,-731 772,-725 778,-725 778,-725 881,-725 881,-725 887,-725 893,-731 893,-737 893,-737 893,-754 893,-754 893,-760 887,-766 881,-766"/>
<text text-anchor="middle" x="829.5" y="-754" font-family="sans" font-size="10.00" fill="#000000">mzml2hdf</text>
<text text-anchor="middle" x="829.5" y="-743" font-family="sans" font-size="10.00" fill="#000000">id: 2022_05_10_QC_07</text>
<text text-anchor="middle" x="829.5" y="-732" font-family="sans" font-size="10.00" fill="#000000">sample_type: qc</text>
</g>
<!-- 24&#45;&gt;23 -->
<g id="edge38" class="edge">
<title>24&#45;&gt;23</title>
<path fill="none" stroke="#c0c0c0" stroke-width="2" d="M816.1293,-724.7476C810.7201,-716.352 804.408,-706.5551 798.6655,-697.6423"/>
<polygon fill="#c0c0c0" stroke="#c0c0c0" stroke-width="2" points="801.5257,-695.6193 793.1673,-689.1087 795.6413,-699.4106 801.5257,-695.6193"/>
</g>
<!-- 26 -->
<g id="node27" class="node">
<title>26</title>
<path fill="none" stroke="#d87d56" stroke-width="2" stroke-dasharray="5,2" d="M905,-689C905,-689 850,-689 850,-689 844,-689 838,-683 838,-677 838,-677 838,-665 838,-665 838,-659 844,-653 850,-653 850,-653 905,-653 905,-653 911,-653 917,-659 917,-665 917,-665 917,-677 917,-677 917,-683 911,-689 905,-689"/>
<text text-anchor="middle" x="877.5" y="-668.5" font-family="sans" font-size="10.00" fill="#000000">threshold_qc</text>
</g>
<!-- 24&#45;&gt;26 -->
<g id="edge41" class="edge">
<title>24&#45;&gt;26</title>
<path fill="none" stroke="#c0c0c0" stroke-width="2" d="M842.8707,-724.7476C848.2799,-716.352 854.592,-706.5551 860.3345,-697.6423"/>
<polygon fill="#c0c0c0" stroke="#c0c0c0" stroke-width="2" points="863.3587,-699.4106 865.8327,-689.1087 857.4743,-695.6193 863.3587,-699.4106"/>
</g>
<!-- 25&#45;&gt;22 -->
<g id="edge37" class="edge">
<title>25&#45;&gt;22</title>
<path fill="none" stroke="#c0c0c0" stroke-width="2" d="M752.733,-580.8314C738.2867,-571.7074 720.6035,-560.539 705.096,-550.7449"/>
<polygon fill="#c0c0c0" stroke="#c0c0c0" stroke-width="2" points="706.5817,-547.5436 696.2578,-545.1628 702.8437,-553.462 706.5817,-547.5436"/>
</g>
<!-- 26&#45;&gt;25 -->
<g id="edge40" class="edge">
<title>26&#45;&gt;25</title>
<path fill="none" stroke="#c0c0c0" stroke-width="2" d="M853.2751,-652.8314C841.3372,-643.8779 826.7744,-632.9558 813.894,-623.2955"/>
<polygon fill="#c0c0c0" stroke="#c0c0c0" stroke-width="2" points="815.8171,-620.3629 805.7171,-617.1628 811.6171,-625.9629 815.8171,-620.3629"/>
</g>
<!-- 27&#45;&gt;4 -->
<g id="edge11" class="edge">
<title>27&#45;&gt;4</title>
<path fill="none" stroke="#c0c0c0" stroke-width="2" d="M626.3908,-435.0333C623.4153,-433.9188 620.428,-432.8894 617.5,-432 530.3068,-405.5141 502.0229,-417.17 409.5041,-396.0546"/>
<polygon fill="#c0c0c0" stroke="#c0c0c0" stroke-width="2" points="410.2751,-392.6405 399.7396,-393.7603 408.6739,-399.455 410.2751,-392.6405"/>
</g>
<!-- 27&#45;&gt;35 -->
<g id="edge63" class="edge">
<title>27&#45;&gt;35</title>
<path fill="none" stroke="#c0c0c0" stroke-width="2" d="M626.4459,-435.6975C623.431,-434.4188 620.4215,-433.1714 617.5,-432 587.4494,-419.9508 553.5417,-407.7056 525.4819,-397.9289"/>
<polygon fill="#c0c0c0" stroke="#c0c0c0" stroke-width="2" points="526.4114,-394.5468 515.8166,-394.5781 524.1184,-401.1606 526.4114,-394.5468"/>
</g>
<!-- 27&#45;&gt;42 -->
<g id="edge75" class="edge">
<title>27&#45;&gt;42</title>
<path fill="none" stroke="#c0c0c0" stroke-width="2" d="M644.3763,-434.4656C634.3586,-425.0186 621.9331,-413.3009 611.0022,-402.9926"/>
<polygon fill="#c0c0c0" stroke="#c0c0c0" stroke-width="2" points="613.398,-400.441 603.7214,-396.1265 608.5954,-405.5337 613.398,-400.441"/>
</g>
<!-- 27&#45;&gt;49 -->
<g id="edge87" class="edge">
<title>27&#45;&gt;49</title>
<path fill="none" stroke="#c0c0c0" stroke-width="2" d="M672.4567,-434.4656C676.8327,-425.6544 682.1897,-414.868 687.0449,-405.0921"/>
<polygon fill="#c0c0c0" stroke="#c0c0c0" stroke-width="2" points="690.1841,-406.6396 691.4976,-396.1265 683.9147,-403.5259 690.1841,-406.6396"/>
</g>
<!-- 28&#45;&gt;4 -->
<g id="edge12" class="edge">
<title>28&#45;&gt;4</title>
<path fill="none" stroke="#c0c0c0" stroke-width="2" d="M378.5433,-434.4656C374.1673,-425.6544 368.8103,-414.868 363.9551,-405.0921"/>
<polygon fill="#c0c0c0" stroke="#c0c0c0" stroke-width="2" points="367.0853,-403.5259 359.5024,-396.1265 360.8159,-406.6396 367.0853,-403.5259"/>
</g>
<!-- 28&#45;&gt;35 -->
<g id="edge64" class="edge">
<title>28&#45;&gt;35</title>
<path fill="none" stroke="#c0c0c0" stroke-width="2" d="M406.6237,-434.4656C416.6414,-425.0186 429.0669,-413.3009 439.9978,-402.9926"/>
<polygon fill="#c0c0c0" stroke="#c0c0c0" stroke-width="2" points="442.4046,-405.5337 447.2786,-396.1265 437.602,-400.441 442.4046,-405.5337"/>
</g>
<!-- 28&#45;&gt;42 -->
<g id="edge76" class="edge">
<title>28&#45;&gt;42</title>
<path fill="none" stroke="#c0c0c0" stroke-width="2" d="M424.5541,-435.6975C427.569,-434.4188 430.5785,-433.1714 433.5,-432 463.5506,-419.9508 497.4583,-407.7056 525.5181,-397.9289"/>
<polygon fill="#c0c0c0" stroke="#c0c0c0" stroke-width="2" points="526.8816,-401.1606 535.1834,-394.5781 524.5886,-394.5468 526.8816,-401.1606"/>
</g>
<!-- 28&#45;&gt;49 -->
<g id="edge88" class="edge">
<title>28&#45;&gt;49</title>
<path fill="none" stroke="#c0c0c0" stroke-width="2" d="M424.6092,-435.0333C427.5847,-433.9188 430.572,-432.8894 433.5,-432 520.6932,-405.5141 548.9771,-417.17 641.4959,-396.0546"/>
<polygon fill="#c0c0c0" stroke="#c0c0c0" stroke-width="2" points="642.3261,-399.455 651.2604,-393.7603 640.7249,-392.6405 642.3261,-399.455"/>
</g>
<!-- 29&#45;&gt;4 -->
<g id="edge13" class="edge">
<title>29&#45;&gt;4</title>
<path fill="none" stroke="#c0c0c0" stroke-width="2" d="M448.2727,-434.4656C430.971,-424.4736 409.2708,-411.9413 390.7121,-401.2233"/>
<polygon fill="#c0c0c0" stroke="#c0c0c0" stroke-width="2" points="392.2969,-398.0968 381.8868,-396.1265 388.7961,-404.1585 392.2969,-398.0968"/>
</g>
<!-- 29&#45;&gt;35 -->
<g id="edge65" class="edge">
<title>29&#45;&gt;35</title>
<path fill="none" stroke="#c0c0c0" stroke-width="2" d="M476.3531,-434.4656C474.8631,-425.927 473.0494,-415.5333 471.3862,-406.002"/>
<polygon fill="#c0c0c0" stroke="#c0c0c0" stroke-width="2" points="474.83,-405.376 469.663,-396.1265 467.9342,-406.5793 474.83,-405.376"/>
</g>
<!-- 29&#45;&gt;42 -->
<g id="edge77" class="edge">
<title>29&#45;&gt;42</title>
<path fill="none" stroke="#c0c0c0" stroke-width="2" d="M504.9176,-434.4656C518.6163,-424.7461 535.7026,-412.6229 550.5277,-402.1041"/>
<polygon fill="#c0c0c0" stroke="#c0c0c0" stroke-width="2" points="552.8222,-404.7677 558.9526,-396.1265 548.7716,-399.0587 552.8222,-404.7677"/>
</g>
<!-- 29&#45;&gt;49 -->
<g id="edge89" class="edge">
<title>29&#45;&gt;49</title>
<path fill="none" stroke="#c0c0c0" stroke-width="2" d="M516.7497,-435.4477C519.6932,-434.2388 522.6348,-433.0748 525.5,-432 573.6542,-413.937 588.8692,-412.2083 641.8644,-396.1642"/>
<polygon fill="#c0c0c0" stroke="#c0c0c0" stroke-width="2" points="642.9164,-399.5026 651.4549,-393.23 640.8684,-392.8088 642.9164,-399.5026"/>
</g>
<!-- 30&#45;&gt;2 -->
<g id="edge7" class="edge">
<title>30&#45;&gt;2</title>
<path fill="none" stroke="#c0c0c0" stroke-width="2" d="M212.5,-215.8314C212.5,-208.131 212.5,-198.9743 212.5,-190.4166"/>
<polygon fill="#c0c0c0" stroke="#c0c0c0" stroke-width="2" points="216.0001,-190.4132 212.5,-180.4133 209.0001,-190.4133 216.0001,-190.4132"/>
</g>
<!-- 31&#45;&gt;30 -->
<g id="edge55" class="edge">
<title>31&#45;&gt;30</title>
<path fill="none" stroke="#c0c0c0" stroke-width="2" d="M220.7242,-287.8314C219.5478,-280.131 218.1489,-270.9743 216.8414,-262.4166"/>
<polygon fill="#c0c0c0" stroke="#c0c0c0" stroke-width="2" points="220.2833,-261.7699 215.3131,-252.4133 213.3636,-262.8272 220.2833,-261.7699"/>
</g>
<!-- 32 -->
<g id="node33" class="node">
<title>32</title>
<path fill="none" stroke="#59d856" stroke-width="2" d="M477,-108C477,-108 394,-108 394,-108 388,-108 382,-102 382,-96 382,-96 382,-84 382,-84 382,-78 388,-72 394,-72 394,-72 477,-72 477,-72 483,-72 489,-78 489,-84 489,-84 489,-96 489,-96 489,-102 483,-108 477,-108"/>
<text text-anchor="middle" x="435.5" y="-87.5" font-family="sans" font-size="10.00" fill="#000000">downselect_peaks</text>
</g>
<!-- 32&#45;&gt;0 -->
<g id="edge2" class="edge">
<title>32&#45;&gt;0</title>
<path fill="none" stroke="#c0c0c0" stroke-width="2" d="M451.1452,-71.8314C458.3591,-63.454 467.057,-53.3531 474.9605,-44.1749"/>
<polygon fill="#c0c0c0" stroke="#c0c0c0" stroke-width="2" points="477.7711,-46.2748 481.6441,-36.4133 472.4667,-41.7071 477.7711,-46.2748"/>
</g>
<!-- 33 -->
<g id="node34" class="node">
<title>33</title>
<path fill="none" stroke="#d8a456" stroke-width="2" d="M464.5,-180C464.5,-180 386.5,-180 386.5,-180 380.5,-180 374.5,-174 374.5,-168 374.5,-168 374.5,-156 374.5,-156 374.5,-150 380.5,-144 386.5,-144 386.5,-144 464.5,-144 464.5,-144 470.5,-144 476.5,-150 476.5,-156 476.5,-156 476.5,-168 476.5,-168 476.5,-174 470.5,-180 464.5,-180"/>
<text text-anchor="middle" x="425.5" y="-159.5" font-family="sans" font-size="10.00" fill="#000000">peakpick_sample</text>
</g>
<!-- 33&#45;&gt;32 -->
<g id="edge57" class="edge">
<title>33&#45;&gt;32</title>
<path fill="none" stroke="#c0c0c0" stroke-width="2" d="M428.0234,-143.8314C429.0929,-136.131 430.3647,-126.9743 431.5532,-118.4166"/>
<polygon fill="#c0c0c0" stroke="#c0c0c0" stroke-width="2" points="435.0336,-118.7997 432.9426,-108.4133 428.1001,-117.8367 435.0336,-118.7997"/>
</g>
<!-- 34 -->
<g id="node35" class="node">
<title>34</title>
<path fill="none" stroke="#d8c356" stroke-width="2" stroke-dasharray="5,2" d="M383,-324C383,-324 306,-324 306,-324 300,-324 294,-318 294,-312 294,-312 294,-300 294,-300 294,-294 300,-288 306,-288 306,-288 383,-288 383,-288 389,-288 395,-294 395,-300 395,-300 395,-312 395,-312 395,-318 389,-324 383,-324"/>
<text text-anchor="middle" x="344.5" y="-303.5" font-family="sans" font-size="10.00" fill="#000000">factorize_sample</text>
</g>
<!-- 34&#45;&gt;33 -->
<g id="edge58" class="edge">
<title>34&#45;&gt;33</title>
<path fill="none" stroke="#c0c0c0" stroke-width="2" d="M346.6448,-287.988C349.5357,-268.9865 355.9719,-238.709 369.5,-216 375.8722,-205.3033 384.9169,-195.308 393.8831,-186.896"/>
<polygon fill="#c0c0c0" stroke="#c0c0c0" stroke-width="2" points="396.2214,-189.5003 401.3359,-180.2216 391.5515,-184.2857 396.2214,-189.5003"/>
</g>
<!-- 37 -->
<g id="node38" class="node">
<title>37</title>
<path fill="none" stroke="#d85656" stroke-width="2" d="M461,-252C461,-252 390,-252 390,-252 384,-252 378,-246 378,-240 378,-240 378,-228 378,-228 378,-222 384,-216 390,-216 390,-216 461,-216 461,-216 467,-216 473,-222 473,-228 473,-228 473,-240 473,-240 473,-246 467,-252 461,-252"/>
<text text-anchor="middle" x="425.5" y="-231.5" font-family="sans" font-size="10.00" fill="#000000">smooth_sample</text>
</g>
<!-- 34&#45;&gt;37 -->
<g id="edge66" class="edge">
<title>34&#45;&gt;37</title>
<path fill="none" stroke="#c0c0c0" stroke-width="2" d="M364.9397,-287.8314C374.8205,-279.0485 386.8324,-268.3712 397.545,-258.8489"/>
<polygon fill="#c0c0c0" stroke="#c0c0c0" stroke-width="2" points="399.918,-261.4224 405.0668,-252.1628 395.2674,-256.1906 399.918,-261.4224"/>
</g>
<!-- 35&#45;&gt;34 -->
<g id="edge60" class="edge">
<title>35&#45;&gt;34</title>
<path fill="none" stroke="#c0c0c0" stroke-width="2" d="M435.7142,-359.8314C420.1097,-350.6221 400.976,-339.3301 384.2697,-329.4706"/>
<polygon fill="#c0c0c0" stroke="#c0c0c0" stroke-width="2" points="385.6669,-326.2312 375.2759,-324.1628 382.1091,-332.2596 385.6669,-326.2312"/>
</g>
<!-- 38 -->
<g id="node39" class="node">
<title>38</title>
<path fill="none" stroke="#56c9d8" stroke-width="2" stroke-dasharray="5,2" d="M505.5,-324C505.5,-324 425.5,-324 425.5,-324 419.5,-324 413.5,-318 413.5,-312 413.5,-312 413.5,-300 413.5,-300 413.5,-294 419.5,-288 425.5,-288 425.5,-288 505.5,-288 505.5,-288 511.5,-288 517.5,-294 517.5,-300 517.5,-300 517.5,-312 517.5,-312 517.5,-318 511.5,-324 505.5,-324"/>
<text text-anchor="middle" x="465.5" y="-303.5" font-family="sans" font-size="10.00" fill="#000000">threshold_sample</text>
</g>
<!-- 35&#45;&gt;38 -->
<g id="edge68" class="edge">
<title>35&#45;&gt;38</title>
<path fill="none" stroke="#c0c0c0" stroke-width="2" d="M466.2477,-359.8314C466.1407,-352.131 466.0135,-342.9743 465.8947,-334.4166"/>
<polygon fill="#c0c0c0" stroke="#c0c0c0" stroke-width="2" points="469.3944,-334.3637 465.7557,-324.4133 462.3951,-334.4609 469.3944,-334.3637"/>
</g>
<!-- 36 -->
<g id="node37" class="node">
<title>36</title>
<path fill="none" stroke="#56a2d8" stroke-width="2" stroke-dasharray="5,2" d="M320,-473C320,-473 187,-473 187,-473 181,-473 175,-467 175,-461 175,-461 175,-444 175,-444 175,-438 181,-432 187,-432 187,-432 320,-432 320,-432 326,-432 332,-438 332,-444 332,-444 332,-461 332,-461 332,-467 326,-473 320,-473"/>
<text text-anchor="middle" x="253.5" y="-461" font-family="sans" font-size="10.00" fill="#000000">mzml2hdf</text>
<text text-anchor="middle" x="253.5" y="-450" font-family="sans" font-size="10.00" fill="#000000">id: 2022_05_10_NR50510_02</text>
<text text-anchor="middle" x="253.5" y="-439" font-family="sans" font-size="10.00" fill="#000000">sample_type: samples</text>
</g>
<!-- 36&#45;&gt;35 -->
<g id="edge61" class="edge">
<title>36&#45;&gt;35</title>
<path fill="none" stroke="#c0c0c0" stroke-width="2" d="M312.267,-431.9453C341.9164,-421.575 377.7891,-409.028 407.4745,-398.6451"/>
<polygon fill="#c0c0c0" stroke="#c0c0c0" stroke-width="2" points="409.0028,-401.8185 417.2866,-395.2132 406.6917,-395.211 409.0028,-401.8185"/>
</g>
<!-- 37&#45;&gt;33 -->
<g id="edge59" class="edge">
<title>37&#45;&gt;33</title>
<path fill="none" stroke="#c0c0c0" stroke-width="2" d="M425.5,-215.8314C425.5,-208.131 425.5,-198.9743 425.5,-190.4166"/>
<polygon fill="#c0c0c0" stroke="#c0c0c0" stroke-width="2" points="429.0001,-190.4132 425.5,-180.4133 422.0001,-190.4133 429.0001,-190.4132"/>
</g>
<!-- 38&#45;&gt;37 -->
<g id="edge67" class="edge">
<title>38&#45;&gt;37</title>
<path fill="none" stroke="#c0c0c0" stroke-width="2" d="M455.4063,-287.8314C450.9403,-279.7925 445.5925,-270.1666 440.6621,-261.2918"/>
<polygon fill="#c0c0c0" stroke="#c0c0c0" stroke-width="2" points="443.6456,-259.4551 435.7296,-252.4133 437.5265,-262.8546 443.6456,-259.4551"/>
</g>
<!-- 39 -->
<g id="node40" class="node">
<title>39</title>
<path fill="none" stroke="#59d856" stroke-width="2" d="M622,-108C622,-108 539,-108 539,-108 533,-108 527,-102 527,-96 527,-96 527,-84 527,-84 527,-78 533,-72 539,-72 539,-72 622,-72 622,-72 628,-72 634,-78 634,-84 634,-84 634,-96 634,-96 634,-102 628,-108 622,-108"/>
<text text-anchor="middle" x="580.5" y="-87.5" font-family="sans" font-size="10.00" fill="#000000">downselect_peaks</text>
</g>
<!-- 39&#45;&gt;0 -->
<g id="edge3" class="edge">
<title>39&#45;&gt;0</title>
<path fill="none" stroke="#c0c0c0" stroke-width="2" d="M559.5556,-71.8314C549.4309,-63.0485 537.1223,-52.3712 526.1452,-42.8489"/>
<polygon fill="#c0c0c0" stroke="#c0c0c0" stroke-width="2" points="528.2851,-40.0718 518.4377,-36.1628 523.6981,-45.3595 528.2851,-40.0718"/>
</g>
<!-- 40 -->
<g id="node41" class="node">
<title>40</title>
<path fill="none" stroke="#d8a456" stroke-width="2" d="M624.5,-180C624.5,-180 546.5,-180 546.5,-180 540.5,-180 534.5,-174 534.5,-168 534.5,-168 534.5,-156 534.5,-156 534.5,-150 540.5,-144 546.5,-144 546.5,-144 624.5,-144 624.5,-144 630.5,-144 636.5,-150 636.5,-156 636.5,-156 636.5,-168 636.5,-168 636.5,-174 630.5,-180 624.5,-180"/>
<text text-anchor="middle" x="585.5" y="-159.5" font-family="sans" font-size="10.00" fill="#000000">peakpick_sample</text>
</g>
<!-- 40&#45;&gt;39 -->
<g id="edge69" class="edge">
<title>40&#45;&gt;39</title>
<path fill="none" stroke="#c0c0c0" stroke-width="2" d="M584.2383,-143.8314C583.7035,-136.131 583.0677,-126.9743 582.4734,-118.4166"/>
<polygon fill="#c0c0c0" stroke="#c0c0c0" stroke-width="2" points="585.9632,-118.1467 581.7787,-108.4133 578.98,-118.6317 585.9632,-118.1467"/>
</g>
<!-- 41 -->
<g id="node42" class="node">
<title>41</title>
<path fill="none" stroke="#d8c356" stroke-width="2" stroke-dasharray="5,2" d="M625,-324C625,-324 548,-324 548,-324 542,-324 536,-318 536,-312 536,-312 536,-300 536,-300 536,-294 542,-288 548,-288 548,-288 625,-288 625,-288 631,-288 637,-294 637,-300 637,-300 637,-312 637,-312 637,-318 631,-324 625,-324"/>
<text text-anchor="middle" x="586.5" y="-303.5" font-family="sans" font-size="10.00" fill="#000000">factorize_sample</text>
</g>
<!-- 41&#45;&gt;40 -->
<g id="edge70" class="edge">
<title>41&#45;&gt;40</title>
<path fill="none" stroke="#c0c0c0" stroke-width="2" d="M586.3733,-287.7623C586.2028,-263.201 585.8976,-219.2474 585.6969,-190.3541"/>
<polygon fill="#c0c0c0" stroke="#c0c0c0" stroke-width="2" points="589.1951,-190.065 585.6256,-180.0896 582.1952,-190.1137 589.1951,-190.065"/>
</g>
<!-- 44 -->
<g id="node45" class="node">
<title>44</title>
<path fill="none" stroke="#d85656" stroke-width="2" stroke-dasharray="5,2" d="M697,-252C697,-252 626,-252 626,-252 620,-252 614,-246 614,-240 614,-240 614,-228 614,-228 614,-222 620,-216 626,-216 626,-216 697,-216 697,-216 703,-216 709,-222 709,-228 709,-228 709,-240 709,-240 709,-246 703,-252 697,-252"/>
<text text-anchor="middle" x="661.5" y="-231.5" font-family="sans" font-size="10.00" fill="#000000">smooth_sample</text>
</g>
<!-- 41&#45;&gt;44 -->
<g id="edge78" class="edge">
<title>41&#45;&gt;44</title>
<path fill="none" stroke="#c0c0c0" stroke-width="2" d="M605.4257,-287.8314C614.4857,-279.1337 625.4809,-268.5783 635.3265,-259.1265"/>
<polygon fill="#c0c0c0" stroke="#c0c0c0" stroke-width="2" points="637.7904,-261.613 642.5804,-252.1628 632.9426,-256.5633 637.7904,-261.613"/>
</g>
<!-- 42&#45;&gt;41 -->
<g id="edge72" class="edge">
<title>42&#45;&gt;41</title>
<path fill="none" stroke="#c0c0c0" stroke-width="2" d="M585.0047,-359.8314C585.2186,-352.131 585.4729,-342.9743 585.7106,-334.4166"/>
<polygon fill="#c0c0c0" stroke="#c0c0c0" stroke-width="2" points="589.2094,-334.5066 585.9885,-324.4133 582.2121,-334.3122 589.2094,-334.5066"/>
</g>
<!-- 45 -->
<g id="node46" class="node">
<title>45</title>
<path fill="none" stroke="#56c9d8" stroke-width="2" stroke-dasharray="5,2" d="M747.5,-324C747.5,-324 667.5,-324 667.5,-324 661.5,-324 655.5,-318 655.5,-312 655.5,-312 655.5,-300 655.5,-300 655.5,-294 661.5,-288 667.5,-288 667.5,-288 747.5,-288 747.5,-288 753.5,-288 759.5,-294 759.5,-300 759.5,-300 759.5,-312 759.5,-312 759.5,-318 753.5,-324 747.5,-324"/>
<text text-anchor="middle" x="707.5" y="-303.5" font-family="sans" font-size="10.00" fill="#000000">threshold_sample</text>
</g>
<!-- 42&#45;&gt;45 -->
<g id="edge80" class="edge">
<title>42&#45;&gt;45</title>
<path fill="none" stroke="#c0c0c0" stroke-width="2" d="M615.5381,-359.8314C631.2705,-350.6221 650.5611,-339.3301 667.4044,-329.4706"/>
<polygon fill="#c0c0c0" stroke="#c0c0c0" stroke-width="2" points="669.6098,-332.2352 676.4718,-324.1628 666.0735,-326.1941 669.6098,-332.2352"/>
</g>
<!-- 43 -->
<g id="node44" class="node">
<title>43</title>
<path fill="none" stroke="#56a2d8" stroke-width="2" stroke-dasharray="5,2" d="M864,-473C864,-473 731,-473 731,-473 725,-473 719,-467 719,-461 719,-461 719,-444 719,-444 719,-438 725,-432 731,-432 731,-432 864,-432 864,-432 870,-432 876,-438 876,-444 876,-444 876,-461 876,-461 876,-467 870,-473 864,-473"/>
<text text-anchor="middle" x="797.5" y="-461" font-family="sans" font-size="10.00" fill="#000000">mzml2hdf</text>
<text text-anchor="middle" x="797.5" y="-450" font-family="sans" font-size="10.00" fill="#000000">id: 2022_05_10_NR51517_02</text>
<text text-anchor="middle" x="797.5" y="-439" font-family="sans" font-size="10.00" fill="#000000">sample_type: samples</text>
</g>
<!-- 43&#45;&gt;42 -->
<g id="edge73" class="edge">
<title>43&#45;&gt;42</title>
<path fill="none" stroke="#c0c0c0" stroke-width="2" d="M738.733,-431.9453C709.0836,-421.575 673.2109,-409.028 643.5255,-398.6451"/>
<polygon fill="#c0c0c0" stroke="#c0c0c0" stroke-width="2" points="644.3083,-395.211 633.7134,-395.2132 641.9972,-401.8185 644.3083,-395.211"/>
</g>
<!-- 44&#45;&gt;40 -->
<g id="edge71" class="edge">
<title>44&#45;&gt;40</title>
<path fill="none" stroke="#c0c0c0" stroke-width="2" d="M642.322,-215.8314C633.1412,-207.1337 621.9994,-196.5783 612.0224,-187.1265"/>
<polygon fill="#c0c0c0" stroke="#c0c0c0" stroke-width="2" points="614.3385,-184.4995 604.6719,-180.1628 609.5243,-189.5811 614.3385,-184.4995"/>
</g>
<!-- 45&#45;&gt;44 -->
<g id="edge79" class="edge">
<title>45&#45;&gt;44</title>
<path fill="none" stroke="#c0c0c0" stroke-width="2" d="M695.8923,-287.8314C690.7022,-279.7079 684.4768,-269.9637 678.7575,-261.0118"/>
<polygon fill="#c0c0c0" stroke="#c0c0c0" stroke-width="2" points="681.5974,-258.9559 673.264,-252.4133 675.6985,-262.7246 681.5974,-258.9559"/>
</g>
<!-- 46 -->
<g id="node47" class="node">
<title>46</title>
<path fill="none" stroke="#59d856" stroke-width="2" d="M790,-108C790,-108 707,-108 707,-108 701,-108 695,-102 695,-96 695,-96 695,-84 695,-84 695,-78 701,-72 707,-72 707,-72 790,-72 790,-72 796,-72 802,-78 802,-84 802,-84 802,-96 802,-96 802,-102 796,-108 790,-108"/>
<text text-anchor="middle" x="748.5" y="-87.5" font-family="sans" font-size="10.00" fill="#000000">downselect_peaks</text>
</g>
<!-- 46&#45;&gt;0 -->
<g id="edge4" class="edge">
<title>46&#45;&gt;0</title>
<path fill="none" stroke="#c0c0c0" stroke-width="2" d="M694.9621,-74.6425C646.5775,-60.7633 576.6393,-40.7013 534.2863,-28.5522"/>
<polygon fill="#c0c0c0" stroke="#c0c0c0" stroke-width="2" points="535.2347,-25.1832 524.6573,-25.7901 533.3046,-31.9119 535.2347,-25.1832"/>
</g>
<!-- 47 -->
<g id="node48" class="node">
<title>47</title>
<path fill="none" stroke="#d8a456" stroke-width="2" d="M829.5,-180C829.5,-180 751.5,-180 751.5,-180 745.5,-180 739.5,-174 739.5,-168 739.5,-168 739.5,-156 739.5,-156 739.5,-150 745.5,-144 751.5,-144 751.5,-144 829.5,-144 829.5,-144 835.5,-144 841.5,-150 841.5,-156 841.5,-156 841.5,-168 841.5,-168 841.5,-174 835.5,-180 829.5,-180"/>
<text text-anchor="middle" x="790.5" y="-159.5" font-family="sans" font-size="10.00" fill="#000000">peakpick_sample</text>
</g>
<!-- 47&#45;&gt;46 -->
<g id="edge81" class="edge">
<title>47&#45;&gt;46</title>
<path fill="none" stroke="#c0c0c0" stroke-width="2" d="M779.9016,-143.8314C775.2123,-135.7925 769.5972,-126.1666 764.4202,-117.2918"/>
<polygon fill="#c0c0c0" stroke="#c0c0c0" stroke-width="2" points="767.3031,-115.2875 759.2411,-108.4133 761.2566,-118.8146 767.3031,-115.2875"/>
</g>
<!-- 48 -->
<g id="node49" class="node">
<title>48</title>
<path fill="none" stroke="#d8c356" stroke-width="2" stroke-dasharray="5,2" d="M867,-324C867,-324 790,-324 790,-324 784,-324 778,-318 778,-312 778,-312 778,-300 778,-300 778,-294 784,-288 790,-288 790,-288 867,-288 867,-288 873,-288 879,-294 879,-300 879,-300 879,-312 879,-312 879,-318 873,-324 867,-324"/>
<text text-anchor="middle" x="828.5" y="-303.5" font-family="sans" font-size="10.00" fill="#000000">factorize_sample</text>
</g>
<!-- 48&#45;&gt;47 -->
<g id="edge82" class="edge">
<title>48&#45;&gt;47</title>
<path fill="none" stroke="#c0c0c0" stroke-width="2" d="M821.8604,-287.6504C818.2361,-277.2686 813.8237,-263.9997 810.5,-252 804.8121,-231.465 799.6315,-207.9494 795.9686,-190.1062"/>
<polygon fill="#c0c0c0" stroke="#c0c0c0" stroke-width="2" points="799.3515,-189.1755 793.9441,-180.0644 792.4895,-190.5589 799.3515,-189.1755"/>
</g>
<!-- 51 -->
<g id="node52" class="node">
<title>51</title>
<path fill="none" stroke="#d85656" stroke-width="2" stroke-dasharray="5,2" d="M902,-252C902,-252 831,-252 831,-252 825,-252 819,-246 819,-240 819,-240 819,-228 819,-228 819,-222 825,-216 831,-216 831,-216 902,-216 902,-216 908,-216 914,-222 914,-228 914,-228 914,-240 914,-240 914,-246 908,-252 902,-252"/>
<text text-anchor="middle" x="866.5" y="-231.5" font-family="sans" font-size="10.00" fill="#000000">smooth_sample</text>
</g>
<!-- 48&#45;&gt;51 -->
<g id="edge90" class="edge">
<title>48&#45;&gt;51</title>
<path fill="none" stroke="#c0c0c0" stroke-width="2" d="M838.089,-287.8314C842.3317,-279.7925 847.4121,-270.1666 852.096,-261.2918"/>
<polygon fill="#c0c0c0" stroke="#c0c0c0" stroke-width="2" points="855.2096,-262.8908 856.7819,-252.4133 849.0189,-259.6235 855.2096,-262.8908"/>
</g>
<!-- 49&#45;&gt;48 -->
<g id="edge84" class="edge">
<title>49&#45;&gt;48</title>
<path fill="none" stroke="#c0c0c0" stroke-width="2" d="M732.7998,-359.8314C749.3234,-350.5368 769.6186,-339.1208 787.2607,-329.1971"/>
<polygon fill="#c0c0c0" stroke="#c0c0c0" stroke-width="2" points="789.2107,-332.116 796.2105,-324.1628 785.7788,-326.015 789.2107,-332.116"/>
</g>
<!-- 52 -->
<g id="node53" class="node">
<title>52</title>
<path fill="none" stroke="#56c9d8" stroke-width="2" stroke-dasharray="5,2" d="M989.5,-324C989.5,-324 909.5,-324 909.5,-324 903.5,-324 897.5,-318 897.5,-312 897.5,-312 897.5,-300 897.5,-300 897.5,-294 903.5,-288 909.5,-288 909.5,-288 989.5,-288 989.5,-288 995.5,-288 1001.5,-294 1001.5,-300 1001.5,-300 1001.5,-312 1001.5,-312 1001.5,-318 995.5,-324 989.5,-324"/>
<text text-anchor="middle" x="949.5" y="-303.5" font-family="sans" font-size="10.00" fill="#000000">threshold_sample</text>
</g>
<!-- 49&#45;&gt;52 -->
<g id="edge92" class="edge">
<title>49&#45;&gt;52</title>
<path fill="none" stroke="#c0c0c0" stroke-width="2" d="M749.6122,-363.9984C785.3376,-353.7893 835.133,-339.5106 887.4655,-324.2926"/>
<polygon fill="#c0c0c0" stroke="#c0c0c0" stroke-width="2" points="888.6403,-327.596 897.2639,-321.4409 886.6842,-320.8749 888.6403,-327.596"/>
</g>
<!-- 50 -->
<g id="node51" class="node">
<title>50</title>
<path fill="none" stroke="#56a2d8" stroke-width="2" stroke-dasharray="5,2" d="M1039,-473C1039,-473 906,-473 906,-473 900,-473 894,-467 894,-461 894,-461 894,-444 894,-444 894,-438 900,-432 906,-432 906,-432 1039,-432 1039,-432 1045,-432 1051,-438 1051,-444 1051,-444 1051,-461 1051,-461 1051,-467 1045,-473 1039,-473"/>
<text text-anchor="middle" x="972.5" y="-461" font-family="sans" font-size="10.00" fill="#000000">mzml2hdf</text>
<text text-anchor="middle" x="972.5" y="-450" font-family="sans" font-size="10.00" fill="#000000">id: 2022_05_10_NR51588_02</text>
<text text-anchor="middle" x="972.5" y="-439" font-family="sans" font-size="10.00" fill="#000000">sample_type: samples</text>
</g>
<!-- 50&#45;&gt;49 -->
<g id="edge85" class="edge">
<title>50&#45;&gt;49</title>
<path fill="none" stroke="#c0c0c0" stroke-width="2" d="M897.4548,-431.9453C853.8741,-420.0087 799.7643,-405.1882 759.2939,-394.1035"/>
<polygon fill="#c0c0c0" stroke="#c0c0c0" stroke-width="2" points="760.1444,-390.7076 749.575,-391.4415 758.2952,-397.4589 760.1444,-390.7076"/>
</g>
<!-- 51&#45;&gt;47 -->
<g id="edge83" class="edge">
<title>51&#45;&gt;47</title>
<path fill="none" stroke="#c0c0c0" stroke-width="2" d="M847.322,-215.8314C838.1412,-207.1337 826.9994,-196.5783 817.0224,-187.1265"/>
<polygon fill="#c0c0c0" stroke="#c0c0c0" stroke-width="2" points="819.3385,-184.4995 809.6719,-180.1628 814.5243,-189.5811 819.3385,-184.4995"/>
</g>
<!-- 52&#45;&gt;51 -->
<g id="edge91" class="edge">
<title>52&#45;&gt;51</title>
<path fill="none" stroke="#c0c0c0" stroke-width="2" d="M928.5556,-287.8314C918.4309,-279.0485 906.1223,-268.3712 895.1452,-258.8489"/>
<polygon fill="#c0c0c0" stroke="#c0c0c0" stroke-width="2" points="897.2851,-256.0718 887.4377,-252.1628 892.6981,-261.3595 897.2851,-256.0718"/>
</g>
</g>
</svg>
