<?xml version="1.0" encoding="UTF-8" standalone="no"?>
<!DOCTYPE svg PUBLIC "-//W3C//DTD SVG 1.1//EN"
 "http://www.w3.org/Graphics/SVG/1.1/DTD/svg11.dtd">
<!-- Generated by graphviz version 2.40.1 (0)
 -->
<!-- Title: snakemake_dag Pages: 1 -->
<svg width="236pt" height="481pt"
 viewBox="0.00 0.00 236.00 481.00" xmlns="http://www.w3.org/2000/svg" xmlns:xlink="http://www.w3.org/1999/xlink">
<g id="graph0" class="graph" transform="scale(1 1) rotate(0) translate(4 477)">
<title>snakemake_dag</title>
<polygon fill="#ffffff" stroke="transparent" points="-4,4 -4,-477 232,-477 232,4 -4,4"/>
<!-- 0 -->
<g id="node1" class="node">
<title>0</title>
<path fill="none" stroke="#56c9d8" stroke-width="2" d="M107,-36C107,-36 77,-36 77,-36 71,-36 65,-30 65,-24 65,-24 65,-12 65,-12 65,-6 71,0 77,0 77,0 107,0 107,0 113,0 119,-6 119,-12 119,-12 119,-24 119,-24 119,-30 113,-36 107,-36"/>
<text text-anchor="middle" x="92" y="-15.5" font-family="sans" font-size="10.00" fill="#000000">all</text>
</g>
<!-- 1 -->
<g id="node2" class="node">
<title>1</title>
<path fill="none" stroke="#567bd8" stroke-width="2" d="M133.5,-108C133.5,-108 50.5,-108 50.5,-108 44.5,-108 38.5,-102 38.5,-96 38.5,-96 38.5,-84 38.5,-84 38.5,-78 44.5,-72 50.5,-72 50.5,-72 133.5,-72 133.5,-72 139.5,-72 145.5,-78 145.5,-84 145.5,-84 145.5,-96 145.5,-96 145.5,-102 139.5,-108 133.5,-108"/>
<text text-anchor="middle" x="92" y="-87.5" font-family="sans" font-size="10.00" fill="#000000">downselect_peaks</text>
</g>
<!-- 1&#45;&gt;0 -->
<g id="edge1" class="edge">
<title>1&#45;&gt;0</title>
<path fill="none" stroke="#c0c0c0" stroke-width="2" d="M92,-71.8314C92,-64.131 92,-54.9743 92,-46.4166"/>
<polygon fill="#c0c0c0" stroke="#c0c0c0" stroke-width="2" points="95.5001,-46.4132 92,-36.4133 88.5001,-46.4133 95.5001,-46.4132"/>
</g>
<!-- 2 -->
<g id="node3" class="node">
<title>2</title>
<path fill="none" stroke="#d8a456" stroke-width="2" d="M131,-180C131,-180 53,-180 53,-180 47,-180 41,-174 41,-168 41,-168 41,-156 41,-156 41,-150 47,-144 53,-144 53,-144 131,-144 131,-144 137,-144 143,-150 143,-156 143,-156 143,-168 143,-168 143,-174 137,-180 131,-180"/>
<text text-anchor="middle" x="92" y="-159.5" font-family="sans" font-size="10.00" fill="#000000">peakpick_sample</text>
</g>
<!-- 2&#45;&gt;1 -->
<g id="edge2" class="edge">
<title>2&#45;&gt;1</title>
<path fill="none" stroke="#c0c0c0" stroke-width="2" d="M92,-143.8314C92,-136.131 92,-126.9743 92,-118.4166"/>
<polygon fill="#c0c0c0" stroke="#c0c0c0" stroke-width="2" points="95.5001,-118.4132 92,-108.4133 88.5001,-118.4133 95.5001,-118.4132"/>
</g>
<!-- 3 -->
<g id="node4" class="node">
<title>3</title>
<path fill="none" stroke="#c6d856" stroke-width="2" d="M92.5,-324C92.5,-324 15.5,-324 15.5,-324 9.5,-324 3.5,-318 3.5,-312 3.5,-312 3.5,-300 3.5,-300 3.5,-294 9.5,-288 15.5,-288 15.5,-288 92.5,-288 92.5,-288 98.5,-288 104.5,-294 104.5,-300 104.5,-300 104.5,-312 104.5,-312 104.5,-318 98.5,-324 92.5,-324"/>
<text text-anchor="middle" x="54" y="-303.5" font-family="sans" font-size="10.00" fill="#000000">factorize_sample</text>
</g>
<!-- 3&#45;&gt;2 -->
<g id="edge3" class="edge">
<title>3&#45;&gt;2</title>
<path fill="none" stroke="#c0c0c0" stroke-width="2" d="M57.1034,-287.903C60.4078,-269.6089 66.1062,-240.6035 73,-216 75.402,-207.4275 78.4493,-198.2426 81.3963,-189.9233"/>
<polygon fill="#c0c0c0" stroke="#c0c0c0" stroke-width="2" points="84.7658,-190.8986 84.8911,-180.3045 78.1866,-188.5081 84.7658,-190.8986"/>
</g>
<!-- 6 -->
<g id="node7" class="node">
<title>6</title>
<path fill="none" stroke="#56d8a2" stroke-width="2" d="M165.5,-252C165.5,-252 94.5,-252 94.5,-252 88.5,-252 82.5,-246 82.5,-240 82.5,-240 82.5,-228 82.5,-228 82.5,-222 88.5,-216 94.5,-216 94.5,-216 165.5,-216 165.5,-216 171.5,-216 177.5,-222 177.5,-228 177.5,-228 177.5,-240 177.5,-240 177.5,-246 171.5,-252 165.5,-252"/>
<text text-anchor="middle" x="130" y="-231.5" font-family="sans" font-size="10.00" fill="#000000">smooth_sample</text>
</g>
<!-- 3&#45;&gt;6 -->
<g id="edge7" class="edge">
<title>3&#45;&gt;6</title>
<path fill="none" stroke="#c0c0c0" stroke-width="2" d="M73.178,-287.8314C82.3588,-279.1337 93.5006,-268.5783 103.4776,-259.1265"/>
<polygon fill="#c0c0c0" stroke="#c0c0c0" stroke-width="2" points="105.9757,-261.5811 110.8281,-252.1628 101.1615,-256.4995 105.9757,-261.5811"/>
</g>
<!-- 4 -->
<g id="node5" class="node">
<title>4</title>
<path fill="none" stroke="#d85656" stroke-width="2" d="M151,-396C151,-396 77,-396 77,-396 71,-396 65,-390 65,-384 65,-384 65,-372 65,-372 65,-366 71,-360 77,-360 77,-360 151,-360 151,-360 157,-360 163,-366 163,-372 163,-372 163,-384 163,-384 163,-390 157,-396 151,-396"/>
<text text-anchor="middle" x="114" y="-375.5" font-family="sans" font-size="10.00" fill="#000000">align_qc_sample</text>
</g>
<!-- 4&#45;&gt;3 -->
<g id="edge5" class="edge">
<title>4&#45;&gt;3</title>
<path fill="none" stroke="#c0c0c0" stroke-width="2" d="M98.8595,-359.8314C91.8783,-351.454 83.4609,-341.3531 75.8124,-332.1749"/>
<polygon fill="#c0c0c0" stroke="#c0c0c0" stroke-width="2" points="78.4351,-329.8548 69.3444,-324.4133 73.0575,-334.3362 78.4351,-329.8548"/>
</g>
<!-- 7 -->
<g id="node8" class="node">
<title>7</title>
<path fill="none" stroke="#d87d56" stroke-width="2" d="M215,-324C215,-324 135,-324 135,-324 129,-324 123,-318 123,-312 123,-312 123,-300 123,-300 123,-294 129,-288 135,-288 135,-288 215,-288 215,-288 221,-288 227,-294 227,-300 227,-300 227,-312 227,-312 227,-318 221,-324 215,-324"/>
<text text-anchor="middle" x="175" y="-303.5" font-family="sans" font-size="10.00" fill="#000000">threshold_sample</text>
</g>
<!-- 4&#45;&gt;7 -->
<g id="edge9" class="edge">
<title>4&#45;&gt;7</title>
<path fill="none" stroke="#c0c0c0" stroke-width="2" d="M129.3929,-359.8314C136.4904,-351.454 145.048,-341.3531 152.824,-332.1749"/>
<polygon fill="#c0c0c0" stroke="#c0c0c0" stroke-width="2" points="155.6061,-334.3056 159.3999,-324.4133 150.2652,-329.7807 155.6061,-334.3056"/>
</g>
<!-- 5 -->
<g id="node6" class="node">
<title>5</title>
<path fill="none" stroke="#59d856" stroke-width="2" stroke-dasharray="5,2" d="M216,-473C216,-473 12,-473 12,-473 6,-473 0,-467 0,-461 0,-461 0,-444 0,-444 0,-438 6,-432 12,-432 12,-432 216,-432 216,-432 222,-432 228,-438 228,-444 228,-444 228,-461 228,-461 228,-467 222,-473 216,-473"/>
<text text-anchor="middle" x="114" y="-461" font-family="sans" font-size="10.00" fill="#000000">mzml2hdf</text>
<text text-anchor="middle" x="114" y="-450" font-family="sans" font-size="10.00" fill="#000000">id: 2023_08_22_P_LC_600_40_NIST_10X_01</text>
<text text-anchor="middle" x="114" y="-439" font-family="sans" font-size="10.00" fill="#000000">sample_type: samples</text>
</g>
<!-- 5&#45;&gt;4 -->
<g id="edge6" class="edge">
<title>5&#45;&gt;4</title>
<path fill="none" stroke="#c0c0c0" stroke-width="2" d="M114,-431.7476C114,-423.8767 114,-414.7743 114,-406.3232"/>
<polygon fill="#c0c0c0" stroke="#c0c0c0" stroke-width="2" points="117.5001,-406.1086 114,-396.1087 110.5001,-406.1087 117.5001,-406.1086"/>
</g>
<!-- 6&#45;&gt;2 -->
<g id="edge4" class="edge">
<title>6&#45;&gt;2</title>
<path fill="none" stroke="#c0c0c0" stroke-width="2" d="M120.411,-215.8314C116.1683,-207.7925 111.0879,-198.1666 106.404,-189.2918"/>
<polygon fill="#c0c0c0" stroke="#c0c0c0" stroke-width="2" points="109.4811,-187.6235 101.7181,-180.4133 103.2904,-190.8908 109.4811,-187.6235"/>
</g>
<!-- 7&#45;&gt;6 -->
<g id="edge8" class="edge">
<title>7&#45;&gt;6</title>
<path fill="none" stroke="#c0c0c0" stroke-width="2" d="M163.6446,-287.8314C158.5674,-279.7079 152.4773,-269.9637 146.8824,-261.0118"/>
<polygon fill="#c0c0c0" stroke="#c0c0c0" stroke-width="2" points="149.7763,-259.0383 141.5083,-252.4133 143.8403,-262.7483 149.7763,-259.0383"/>
</g>
</g>
</svg>
