<?xml version="1.0" encoding="UTF-8" standalone="no"?>
<!DOCTYPE svg PUBLIC "-//W3C//DTD SVG 1.1//EN"
 "http://www.w3.org/Graphics/SVG/1.1/DTD/svg11.dtd">
<!-- Generated by graphviz version 2.40.1 (0)
 -->
<!-- Title: snakemake_dag Pages: 1 -->
<svg width="1059pt" height="846pt"
 viewBox="0.00 0.00 1059.00 846.00" xmlns="http://www.w3.org/2000/svg" xmlns:xlink="http://www.w3.org/1999/xlink">
<g id="graph0" class="graph" transform="scale(1 1) rotate(0) translate(4 842)">
<title>snakemake_dag</title>
<polygon fill="#ffffff" stroke="transparent" points="-4,4 -4,-842 1055,-842 1055,4 -4,4"/>
<!-- 0 -->
<g id="node1" class="node">
<title>0</title>
<path fill="none" stroke="#d8a456" stroke-width="2" stroke-dasharray="5,2" d="M514.5,-36C514.5,-36 484.5,-36 484.5,-36 478.5,-36 472.5,-30 472.5,-24 472.5,-24 472.5,-12 472.5,-12 472.5,-6 478.5,0 484.5,0 484.5,0 514.5,0 514.5,0 520.5,0 526.5,-6 526.5,-12 526.5,-12 526.5,-24 526.5,-24 526.5,-30 520.5,-36 514.5,-36"/>
<text text-anchor="middle" x="499.5" y="-15.5" font-family="sans" font-size="10.00" fill="#000000">all</text>
</g>
<!-- 1 -->
<g id="node2" class="node">
<title>1</title>
<path fill="none" stroke="#59d856" stroke-width="2" stroke-dasharray="5,2" d="M369,-108C369,-108 316,-108 316,-108 310,-108 304,-102 304,-96 304,-96 304,-84 304,-84 304,-78 310,-72 316,-72 316,-72 369,-72 369,-72 375,-72 381,-78 381,-84 381,-84 381,-96 381,-96 381,-102 375,-108 369,-108"/>
<text text-anchor="middle" x="342.5" y="-87.5" font-family="sans" font-size="10.00" fill="#000000">save_to_csv</text>
</g>
<!-- 1&#45;&gt;0 -->
<g id="edge1" class="edge">
<title>1&#45;&gt;0</title>
<path fill="none" stroke="#c0c0c0" stroke-width="2" d="M381.309,-72.2022C406.3201,-60.7322 438.6262,-45.9167 463.14,-34.6747"/>
<polygon fill="#c0c0c0" stroke="#c0c0c0" stroke-width="2" points="464.8242,-37.7529 472.4549,-30.4028 461.9062,-31.39 464.8242,-37.7529"/>
</g>
<!-- 2 -->
<g id="node3" class="node">
<title>2</title>
<path fill="none" stroke="#567bd8" stroke-width="2" stroke-dasharray="5,2" d="M296,-180C296,-180 213,-180 213,-180 207,-180 201,-174 201,-168 201,-168 201,-156 201,-156 201,-150 207,-144 213,-144 213,-144 296,-144 296,-144 302,-144 308,-150 308,-156 308,-156 308,-168 308,-168 308,-174 302,-180 296,-180"/>
<text text-anchor="middle" x="254.5" y="-159.5" font-family="sans" font-size="10.00" fill="#000000">downselect_peaks</text>
</g>
<!-- 2&#45;&gt;1 -->
<g id="edge5" class="edge">
<title>2&#45;&gt;1</title>
<path fill="none" stroke="#c0c0c0" stroke-width="2" d="M276.7061,-143.8314C287.545,-134.9632 300.7444,-124.1637 312.4678,-114.5718"/>
<polygon fill="#c0c0c0" stroke="#c0c0c0" stroke-width="2" points="314.7777,-117.2041 320.301,-108.1628 310.345,-111.7864 314.7777,-117.2041"/>
</g>
<!-- 3 -->
<g id="node4" class="node">
<title>3</title>
<path fill="none" stroke="#9fd856" stroke-width="2" stroke-dasharray="5,2" d="M251.5,-252C251.5,-252 173.5,-252 173.5,-252 167.5,-252 161.5,-246 161.5,-240 161.5,-240 161.5,-228 161.5,-228 161.5,-222 167.5,-216 173.5,-216 173.5,-216 251.5,-216 251.5,-216 257.5,-216 263.5,-222 263.5,-228 263.5,-228 263.5,-240 263.5,-240 263.5,-246 257.5,-252 251.5,-252"/>
<text text-anchor="middle" x="212.5" y="-231.5" font-family="sans" font-size="10.00" fill="#000000">peakpick_sample</text>
</g>
<!-- 3&#45;&gt;2 -->
<g id="edge6" class="edge">
<title>3&#45;&gt;2</title>
<path fill="none" stroke="#c0c0c0" stroke-width="2" d="M223.0984,-215.8314C227.7877,-207.7925 233.4028,-198.1666 238.5798,-189.2918"/>
<polygon fill="#c0c0c0" stroke="#c0c0c0" stroke-width="2" points="241.7434,-190.8146 243.7589,-180.4133 235.6969,-187.2875 241.7434,-190.8146"/>
</g>
<!-- 4 -->
<g id="node5" class="node">
<title>4</title>
<path fill="none" stroke="#d85656" stroke-width="2" stroke-dasharray="5,2" d="M141,-396C141,-396 64,-396 64,-396 58,-396 52,-390 52,-384 52,-384 52,-372 52,-372 52,-366 58,-360 64,-360 64,-360 141,-360 141,-360 147,-360 153,-366 153,-372 153,-372 153,-384 153,-384 153,-390 147,-396 141,-396"/>
<text text-anchor="middle" x="102.5" y="-375.5" font-family="sans" font-size="10.00" fill="#000000">factorize_sample</text>
</g>
<!-- 4&#45;&gt;3 -->
<g id="edge7" class="edge">
<title>4&#45;&gt;3</title>
<path fill="none" stroke="#c0c0c0" stroke-width="2" d="M111.2898,-359.8041C120.8407,-340.9187 137.205,-310.9829 155.5,-288 163.5917,-277.8349 173.5593,-267.7536 182.8844,-259.1028"/>
<polygon fill="#c0c0c0" stroke="#c0c0c0" stroke-width="2" points="185.444,-261.5069 190.5109,-252.2022 180.7475,-256.3163 185.444,-261.5069"/>
</g>
<!-- 31 -->
<g id="node32" class="node">
<title>31</title>
<path fill="none" stroke="#56d87b" stroke-width="2" stroke-dasharray="5,2" d="M248,-324C248,-324 177,-324 177,-324 171,-324 165,-318 165,-312 165,-312 165,-300 165,-300 165,-294 171,-288 177,-288 177,-288 248,-288 248,-288 254,-288 260,-294 260,-300 260,-300 260,-312 260,-312 260,-318 254,-324 248,-324"/>
<text text-anchor="middle" x="212.5" y="-303.5" font-family="sans" font-size="10.00" fill="#000000">smooth_sample</text>
</g>
<!-- 4&#45;&gt;31 -->
<g id="edge55" class="edge">
<title>4&#45;&gt;31</title>
<path fill="none" stroke="#c0c0c0" stroke-width="2" d="M130.2576,-359.8314C144.197,-350.7074 161.2598,-339.539 176.2231,-329.7449"/>
<polygon fill="#c0c0c0" stroke="#c0c0c0" stroke-width="2" points="178.301,-332.5679 184.7512,-324.1628 174.4674,-326.711 178.301,-332.5679"/>
</g>
<!-- 5 -->
<g id="node6" class="node">
<title>5</title>
<path fill="none" stroke="#c6d856" stroke-width="2" stroke-dasharray="5,2" d="M387.5,-468C387.5,-468 313.5,-468 313.5,-468 307.5,-468 301.5,-462 301.5,-456 301.5,-456 301.5,-444 301.5,-444 301.5,-438 307.5,-432 313.5,-432 313.5,-432 387.5,-432 387.5,-432 393.5,-432 399.5,-438 399.5,-444 399.5,-444 399.5,-456 399.5,-456 399.5,-462 393.5,-468 387.5,-468"/>
<text text-anchor="middle" x="350.5" y="-447.5" font-family="sans" font-size="10.00" fill="#000000">align_qc_sample</text>
</g>
<!-- 5&#45;&gt;4 -->
<g id="edge9" class="edge">
<title>5&#45;&gt;4</title>
<path fill="none" stroke="#c0c0c0" stroke-width="2" d="M301.3701,-436.0589C265.6358,-425.8801 215.8364,-411.6153 163.1042,-396.1622"/>
<polygon fill="#c0c0c0" stroke="#c0c0c0" stroke-width="2" points="163.8075,-392.721 153.2266,-393.2636 161.8364,-399.4378 163.8075,-392.721"/>
</g>
<!-- 32 -->
<g id="node33" class="node">
<title>32</title>
<path fill="none" stroke="#78d856" stroke-width="2" stroke-dasharray="5,2" d="M263.5,-396C263.5,-396 183.5,-396 183.5,-396 177.5,-396 171.5,-390 171.5,-384 171.5,-384 171.5,-372 171.5,-372 171.5,-366 177.5,-360 183.5,-360 183.5,-360 263.5,-360 263.5,-360 269.5,-360 275.5,-366 275.5,-372 275.5,-372 275.5,-384 275.5,-384 275.5,-390 269.5,-396 263.5,-396"/>
<text text-anchor="middle" x="223.5" y="-375.5" font-family="sans" font-size="10.00" fill="#000000">threshold_sample</text>
</g>
<!-- 5&#45;&gt;32 -->
<g id="edge57" class="edge">
<title>5&#45;&gt;32</title>
<path fill="none" stroke="#c0c0c0" stroke-width="2" d="M318.4525,-431.8314C302.058,-422.5368 281.9214,-411.1208 264.4171,-401.1971"/>
<polygon fill="#c0c0c0" stroke="#c0c0c0" stroke-width="2" points="265.9626,-398.05 255.5372,-396.1628 262.5103,-404.1395 265.9626,-398.05"/>
</g>
<!-- 6 -->
<g id="node7" class="node">
<title>6</title>
<path fill="none" stroke="#56a2d8" stroke-width="2" stroke-dasharray="5,2" d="M145,-545C145,-545 12,-545 12,-545 6,-545 0,-539 0,-533 0,-533 0,-516 0,-516 0,-510 6,-504 12,-504 12,-504 145,-504 145,-504 151,-504 157,-510 157,-516 157,-516 157,-533 157,-533 157,-539 151,-545 145,-545"/>
<text text-anchor="middle" x="78.5" y="-533" font-family="sans" font-size="10.00" fill="#000000">mzml2hdf</text>
<text text-anchor="middle" x="78.5" y="-522" font-family="sans" font-size="10.00" fill="#000000">id: 2022_05_10_NR46543_02</text>
<text text-anchor="middle" x="78.5" y="-511" font-family="sans" font-size="10.00" fill="#000000">sample_type: samples</text>
</g>
<!-- 6&#45;&gt;5 -->
<g id="edge10" class="edge">
<title>6&#45;&gt;5</title>
<path fill="none" stroke="#c0c0c0" stroke-width="2" d="M153.5452,-503.9453C197.1259,-492.0087 251.2357,-477.1882 291.7061,-466.1035"/>
<polygon fill="#c0c0c0" stroke="#c0c0c0" stroke-width="2" points="292.7048,-469.4589 301.425,-463.4415 290.8556,-462.7076 292.7048,-469.4589"/>
</g>
<!-- 7 -->
<g id="node8" class="node">
<title>7</title>
<path fill="none" stroke="#56d8a2" stroke-width="2" stroke-dasharray="5,2" d="M596.5,-542.5C596.5,-542.5 546.5,-542.5 546.5,-542.5 540.5,-542.5 534.5,-536.5 534.5,-530.5 534.5,-530.5 534.5,-518.5 534.5,-518.5 534.5,-512.5 540.5,-506.5 546.5,-506.5 546.5,-506.5 596.5,-506.5 596.5,-506.5 602.5,-506.5 608.5,-512.5 608.5,-518.5 608.5,-518.5 608.5,-530.5 608.5,-530.5 608.5,-536.5 602.5,-542.5 596.5,-542.5"/>
<text text-anchor="middle" x="571.5" y="-522" font-family="sans" font-size="10.00" fill="#000000">align_qc_qc</text>
</g>
<!-- 7&#45;&gt;5 -->
<g id="edge11" class="edge">
<title>7&#45;&gt;5</title>
<path fill="none" stroke="#c0c0c0" stroke-width="2" d="M534.2503,-507.4477C531.3068,-506.2388 528.3652,-505.0748 525.5,-504 477.3458,-485.937 462.1308,-484.2083 409.1356,-468.1642"/>
<polygon fill="#c0c0c0" stroke="#c0c0c0" stroke-width="2" points="410.1316,-464.8088 399.5451,-465.23 408.0836,-471.5026 410.1316,-464.8088"/>
</g>
<!-- 37 -->
<g id="node38" class="node">
<title>37</title>
<path fill="none" stroke="#c6d856" stroke-width="2" stroke-dasharray="5,2" d="M503.5,-468C503.5,-468 429.5,-468 429.5,-468 423.5,-468 417.5,-462 417.5,-456 417.5,-456 417.5,-444 417.5,-444 417.5,-438 423.5,-432 429.5,-432 429.5,-432 503.5,-432 503.5,-432 509.5,-432 515.5,-438 515.5,-444 515.5,-444 515.5,-456 515.5,-456 515.5,-462 509.5,-468 503.5,-468"/>
<text text-anchor="middle" x="466.5" y="-447.5" font-family="sans" font-size="10.00" fill="#000000">align_qc_sample</text>
</g>
<!-- 7&#45;&gt;37 -->
<g id="edge64" class="edge">
<title>7&#45;&gt;37</title>
<path fill="none" stroke="#c0c0c0" stroke-width="2" d="M546.0824,-506.4656C532.3837,-496.7461 515.2974,-484.6229 500.4723,-474.1041"/>
<polygon fill="#c0c0c0" stroke="#c0c0c0" stroke-width="2" points="502.2284,-471.0587 492.0474,-468.1265 498.1778,-476.7677 502.2284,-471.0587"/>
</g>
<!-- 45 -->
<g id="node46" class="node">
<title>45</title>
<path fill="none" stroke="#c6d856" stroke-width="2" stroke-dasharray="5,2" d="M621.5,-468C621.5,-468 547.5,-468 547.5,-468 541.5,-468 535.5,-462 535.5,-456 535.5,-456 535.5,-444 535.5,-444 535.5,-438 541.5,-432 547.5,-432 547.5,-432 621.5,-432 621.5,-432 627.5,-432 633.5,-438 633.5,-444 633.5,-444 633.5,-456 633.5,-456 633.5,-462 627.5,-468 621.5,-468"/>
<text text-anchor="middle" x="584.5" y="-447.5" font-family="sans" font-size="10.00" fill="#000000">align_qc_sample</text>
</g>
<!-- 7&#45;&gt;45 -->
<g id="edge77" class="edge">
<title>7&#45;&gt;45</title>
<path fill="none" stroke="#c0c0c0" stroke-width="2" d="M574.6469,-506.4656C576.1369,-497.927 577.9506,-487.5333 579.6138,-478.002"/>
<polygon fill="#c0c0c0" stroke="#c0c0c0" stroke-width="2" points="583.0658,-478.5793 581.337,-468.1265 576.17,-477.376 583.0658,-478.5793"/>
</g>
<!-- 53 -->
<g id="node54" class="node">
<title>53</title>
<path fill="none" stroke="#c6d856" stroke-width="2" stroke-dasharray="5,2" d="M737.5,-468C737.5,-468 663.5,-468 663.5,-468 657.5,-468 651.5,-462 651.5,-456 651.5,-456 651.5,-444 651.5,-444 651.5,-438 657.5,-432 663.5,-432 663.5,-432 737.5,-432 737.5,-432 743.5,-432 749.5,-438 749.5,-444 749.5,-444 749.5,-456 749.5,-456 749.5,-462 743.5,-468 737.5,-468"/>
<text text-anchor="middle" x="700.5" y="-447.5" font-family="sans" font-size="10.00" fill="#000000">align_qc_sample</text>
</g>
<!-- 7&#45;&gt;53 -->
<g id="edge90" class="edge">
<title>7&#45;&gt;53</title>
<path fill="none" stroke="#c0c0c0" stroke-width="2" d="M602.7273,-506.4656C620.029,-496.4736 641.7292,-483.9413 660.2879,-473.2233"/>
<polygon fill="#c0c0c0" stroke="#c0c0c0" stroke-width="2" points="662.2039,-476.1585 669.1132,-468.1265 658.7031,-470.0968 662.2039,-476.1585"/>
</g>
<!-- 8 -->
<g id="node9" class="node">
<title>8</title>
<path fill="none" stroke="#56d8c9" stroke-width="2" stroke-dasharray="5,2" d="M409,-617C409,-617 356,-617 356,-617 350,-617 344,-611 344,-605 344,-605 344,-593 344,-593 344,-587 350,-581 356,-581 356,-581 409,-581 409,-581 415,-581 421,-587 421,-593 421,-593 421,-605 421,-605 421,-611 415,-617 409,-617"/>
<text text-anchor="middle" x="382.5" y="-596.5" font-family="sans" font-size="10.00" fill="#000000">peakpick_qc</text>
</g>
<!-- 8&#45;&gt;7 -->
<g id="edge15" class="edge">
<title>8&#45;&gt;7</title>
<path fill="none" stroke="#c0c0c0" stroke-width="2" d="M421.2072,-584.4467C455.609,-571.5041 502.9663,-553.6647 525.1334,-544.9675"/>
<polygon fill="#c0c0c0" stroke="#c0c0c0" stroke-width="2" points="526.4419,-548.2138 534.4228,-541.2455 523.8384,-541.7159 526.4419,-548.2138"/>
</g>
<!-- 28 -->
<g id="node29" class="node">
<title>28</title>
<path fill="none" stroke="#56d8a2" stroke-width="2" stroke-dasharray="5,2" d="M688.5,-542.5C688.5,-542.5 638.5,-542.5 638.5,-542.5 632.5,-542.5 626.5,-536.5 626.5,-530.5 626.5,-530.5 626.5,-518.5 626.5,-518.5 626.5,-512.5 632.5,-506.5 638.5,-506.5 638.5,-506.5 688.5,-506.5 688.5,-506.5 694.5,-506.5 700.5,-512.5 700.5,-518.5 700.5,-518.5 700.5,-530.5 700.5,-530.5 700.5,-536.5 694.5,-542.5 688.5,-542.5"/>
<text text-anchor="middle" x="663.5" y="-522" font-family="sans" font-size="10.00" fill="#000000">align_qc_qc</text>
</g>
<!-- 8&#45;&gt;28 -->
<g id="edge44" class="edge">
<title>8&#45;&gt;28</title>
<path fill="none" stroke="#c0c0c0" stroke-width="2" d="M421.0863,-583.8918C424.25,-582.8486 427.4159,-581.8684 430.5,-581 508.9457,-558.9108 534.8435,-569.5258 616.6565,-544.9096"/>
<polygon fill="#c0c0c0" stroke="#c0c0c0" stroke-width="2" points="617.8531,-548.2031 626.371,-541.9026 615.7832,-541.5161 617.8531,-548.2031"/>
</g>
<!-- 29 -->
<g id="node30" class="node">
<title>29</title>
<path fill="none" stroke="#56d8a2" stroke-width="2" stroke-dasharray="5,2" d="M412.5,-542.5C412.5,-542.5 362.5,-542.5 362.5,-542.5 356.5,-542.5 350.5,-536.5 350.5,-530.5 350.5,-530.5 350.5,-518.5 350.5,-518.5 350.5,-512.5 356.5,-506.5 362.5,-506.5 362.5,-506.5 412.5,-506.5 412.5,-506.5 418.5,-506.5 424.5,-512.5 424.5,-518.5 424.5,-518.5 424.5,-530.5 424.5,-530.5 424.5,-536.5 418.5,-542.5 412.5,-542.5"/>
<text text-anchor="middle" x="387.5" y="-522" font-family="sans" font-size="10.00" fill="#000000">align_qc_qc</text>
</g>
<!-- 8&#45;&gt;29 -->
<g id="edge48" class="edge">
<title>8&#45;&gt;29</title>
<path fill="none" stroke="#c0c0c0" stroke-width="2" d="M383.7104,-580.9656C384.2773,-572.5178 384.9662,-562.2542 385.6002,-552.8064"/>
<polygon fill="#c0c0c0" stroke="#c0c0c0" stroke-width="2" points="389.1059,-552.8385 386.2835,-542.6265 382.1216,-552.3697 389.1059,-552.8385"/>
</g>
<!-- 30 -->
<g id="node31" class="node">
<title>30</title>
<path fill="none" stroke="#56d8a2" stroke-width="2" stroke-dasharray="5,2" d="M504.5,-542.5C504.5,-542.5 454.5,-542.5 454.5,-542.5 448.5,-542.5 442.5,-536.5 442.5,-530.5 442.5,-530.5 442.5,-518.5 442.5,-518.5 442.5,-512.5 448.5,-506.5 454.5,-506.5 454.5,-506.5 504.5,-506.5 504.5,-506.5 510.5,-506.5 516.5,-512.5 516.5,-518.5 516.5,-518.5 516.5,-530.5 516.5,-530.5 516.5,-536.5 510.5,-542.5 504.5,-542.5"/>
<text text-anchor="middle" x="479.5" y="-522" font-family="sans" font-size="10.00" fill="#000000">align_qc_qc</text>
</g>
<!-- 8&#45;&gt;30 -->
<g id="edge52" class="edge">
<title>8&#45;&gt;30</title>
<path fill="none" stroke="#c0c0c0" stroke-width="2" d="M405.981,-580.9656C418.5177,-571.3369 434.1257,-559.3493 447.7316,-548.8995"/>
<polygon fill="#c0c0c0" stroke="#c0c0c0" stroke-width="2" points="450.1001,-551.4935 455.899,-542.6265 445.8363,-545.9419 450.1001,-551.4935"/>
</g>
<!-- 9 -->
<g id="node10" class="node">
<title>9</title>
<path fill="none" stroke="#56c9d8" stroke-width="2" stroke-dasharray="5,2" d="M223.5,-761C223.5,-761 171.5,-761 171.5,-761 165.5,-761 159.5,-755 159.5,-749 159.5,-749 159.5,-737 159.5,-737 159.5,-731 165.5,-725 171.5,-725 171.5,-725 223.5,-725 223.5,-725 229.5,-725 235.5,-731 235.5,-737 235.5,-737 235.5,-749 235.5,-749 235.5,-755 229.5,-761 223.5,-761"/>
<text text-anchor="middle" x="197.5" y="-740.5" font-family="sans" font-size="10.00" fill="#000000">factorize_qc</text>
</g>
<!-- 9&#45;&gt;8 -->
<g id="edge19" class="edge">
<title>9&#45;&gt;8</title>
<path fill="none" stroke="#c0c0c0" stroke-width="2" d="M203.8844,-724.7431C211.749,-704.6717 226.9059,-672.6683 249.5,-653 273.6068,-632.0149 306.9397,-618.5031 334.2043,-610.2435"/>
<polygon fill="#c0c0c0" stroke="#c0c0c0" stroke-width="2" points="335.3078,-613.568 343.9463,-607.434 333.368,-606.8421 335.3078,-613.568"/>
</g>
<!-- 11 -->
<g id="node12" class="node">
<title>11</title>
<path fill="none" stroke="#d8c356" stroke-width="2" stroke-dasharray="5,2" d="M316.5,-689C316.5,-689 270.5,-689 270.5,-689 264.5,-689 258.5,-683 258.5,-677 258.5,-677 258.5,-665 258.5,-665 258.5,-659 264.5,-653 270.5,-653 270.5,-653 316.5,-653 316.5,-653 322.5,-653 328.5,-659 328.5,-665 328.5,-665 328.5,-677 328.5,-677 328.5,-683 322.5,-689 316.5,-689"/>
<text text-anchor="middle" x="293.5" y="-668.5" font-family="sans" font-size="10.00" fill="#000000">smooth_qc</text>
</g>
<!-- 9&#45;&gt;11 -->
<g id="edge22" class="edge">
<title>9&#45;&gt;11</title>
<path fill="none" stroke="#c0c0c0" stroke-width="2" d="M221.7249,-724.8314C233.6628,-715.8779 248.2256,-704.9558 261.106,-695.2955"/>
<polygon fill="#c0c0c0" stroke="#c0c0c0" stroke-width="2" points="263.3829,-697.9629 269.2829,-689.1628 259.1829,-692.3629 263.3829,-697.9629"/>
</g>
<!-- 10 -->
<g id="node11" class="node">
<title>10</title>
<path fill="none" stroke="#56a2d8" stroke-width="2" stroke-dasharray="5,2" d="M297,-838C297,-838 194,-838 194,-838 188,-838 182,-832 182,-826 182,-826 182,-809 182,-809 182,-803 188,-797 194,-797 194,-797 297,-797 297,-797 303,-797 309,-803 309,-809 309,-809 309,-826 309,-826 309,-832 303,-838 297,-838"/>
<text text-anchor="middle" x="245.5" y="-826" font-family="sans" font-size="10.00" fill="#000000">mzml2hdf</text>
<text text-anchor="middle" x="245.5" y="-815" font-family="sans" font-size="10.00" fill="#000000">id: 2022_05_10_QC_04</text>
<text text-anchor="middle" x="245.5" y="-804" font-family="sans" font-size="10.00" fill="#000000">sample_type: qc</text>
</g>
<!-- 10&#45;&gt;9 -->
<g id="edge21" class="edge">
<title>10&#45;&gt;9</title>
<path fill="none" stroke="#c0c0c0" stroke-width="2" d="M232.1293,-796.7476C226.7201,-788.352 220.408,-778.5551 214.6655,-769.6423"/>
<polygon fill="#c0c0c0" stroke="#c0c0c0" stroke-width="2" points="217.5257,-767.6193 209.1673,-761.1087 211.6413,-771.4106 217.5257,-767.6193"/>
</g>
<!-- 12 -->
<g id="node13" class="node">
<title>12</title>
<path fill="none" stroke="#d87d56" stroke-width="2" stroke-dasharray="5,2" d="M321,-761C321,-761 266,-761 266,-761 260,-761 254,-755 254,-749 254,-749 254,-737 254,-737 254,-731 260,-725 266,-725 266,-725 321,-725 321,-725 327,-725 333,-731 333,-737 333,-737 333,-749 333,-749 333,-755 327,-761 321,-761"/>
<text text-anchor="middle" x="293.5" y="-740.5" font-family="sans" font-size="10.00" fill="#000000">threshold_qc</text>
</g>
<!-- 10&#45;&gt;12 -->
<g id="edge24" class="edge">
<title>10&#45;&gt;12</title>
<path fill="none" stroke="#c0c0c0" stroke-width="2" d="M258.8707,-796.7476C264.2799,-788.352 270.592,-778.5551 276.3345,-769.6423"/>
<polygon fill="#c0c0c0" stroke="#c0c0c0" stroke-width="2" points="279.3587,-771.4106 281.8327,-761.1087 273.4743,-767.6193 279.3587,-771.4106"/>
</g>
<!-- 11&#45;&gt;8 -->
<g id="edge20" class="edge">
<title>11&#45;&gt;8</title>
<path fill="none" stroke="#c0c0c0" stroke-width="2" d="M315.9585,-652.8314C326.9205,-643.9632 340.2699,-633.1637 352.1265,-623.5718"/>
<polygon fill="#c0c0c0" stroke="#c0c0c0" stroke-width="2" points="354.4755,-626.1734 360.0487,-617.1628 350.0729,-620.7313 354.4755,-626.1734"/>
</g>
<!-- 12&#45;&gt;11 -->
<g id="edge23" class="edge">
<title>12&#45;&gt;11</title>
<path fill="none" stroke="#c0c0c0" stroke-width="2" d="M293.5,-724.8314C293.5,-717.131 293.5,-707.9743 293.5,-699.4166"/>
<polygon fill="#c0c0c0" stroke="#c0c0c0" stroke-width="2" points="297.0001,-699.4132 293.5,-689.4133 290.0001,-699.4133 297.0001,-699.4132"/>
</g>
<!-- 13 -->
<g id="node14" class="node">
<title>13</title>
<path fill="none" stroke="#56d8c9" stroke-width="2" stroke-dasharray="5,2" d="M504,-617C504,-617 451,-617 451,-617 445,-617 439,-611 439,-605 439,-605 439,-593 439,-593 439,-587 445,-581 451,-581 451,-581 504,-581 504,-581 510,-581 516,-587 516,-593 516,-593 516,-605 516,-605 516,-611 510,-617 504,-617"/>
<text text-anchor="middle" x="477.5" y="-596.5" font-family="sans" font-size="10.00" fill="#000000">peakpick_qc</text>
</g>
<!-- 13&#45;&gt;7 -->
<g id="edge16" class="edge">
<title>13&#45;&gt;7</title>
<path fill="none" stroke="#c0c0c0" stroke-width="2" d="M500.2548,-580.9656C512.4038,-571.3369 527.529,-559.3493 540.7141,-548.8995"/>
<polygon fill="#c0c0c0" stroke="#c0c0c0" stroke-width="2" points="542.9658,-551.5808 548.629,-542.6265 538.6179,-546.0949 542.9658,-551.5808"/>
</g>
<!-- 13&#45;&gt;28 -->
<g id="edge43" class="edge">
<title>13&#45;&gt;28</title>
<path fill="none" stroke="#c0c0c0" stroke-width="2" d="M516.3075,-584.2861C547.2089,-572.528 588.7828,-556.6067 617.0208,-545.0962"/>
<polygon fill="#c0c0c0" stroke="#c0c0c0" stroke-width="2" points="618.503,-548.2709 626.4134,-541.2228 615.8343,-541.7996 618.503,-548.2709"/>
</g>
<!-- 13&#45;&gt;29 -->
<g id="edge49" class="edge">
<title>13&#45;&gt;29</title>
<path fill="none" stroke="#c0c0c0" stroke-width="2" d="M455.7135,-580.9656C444.1912,-571.4277 429.8729,-559.5753 417.3337,-549.1956"/>
<polygon fill="#c0c0c0" stroke="#c0c0c0" stroke-width="2" points="419.3328,-546.307 409.3978,-542.6265 414.8692,-551.6992 419.3328,-546.307"/>
</g>
<!-- 13&#45;&gt;30 -->
<g id="edge53" class="edge">
<title>13&#45;&gt;30</title>
<path fill="none" stroke="#c0c0c0" stroke-width="2" d="M477.9841,-580.9656C478.2109,-572.5178 478.4865,-562.2542 478.7401,-552.8064"/>
<polygon fill="#c0c0c0" stroke="#c0c0c0" stroke-width="2" points="482.2437,-552.7169 479.0134,-542.6265 475.2462,-552.5289 482.2437,-552.7169"/>
</g>
<!-- 14 -->
<g id="node15" class="node">
<title>14</title>
<path fill="none" stroke="#56c9d8" stroke-width="2" stroke-dasharray="5,2" d="M415.5,-761C415.5,-761 363.5,-761 363.5,-761 357.5,-761 351.5,-755 351.5,-749 351.5,-749 351.5,-737 351.5,-737 351.5,-731 357.5,-725 363.5,-725 363.5,-725 415.5,-725 415.5,-725 421.5,-725 427.5,-731 427.5,-737 427.5,-737 427.5,-749 427.5,-749 427.5,-755 421.5,-761 415.5,-761"/>
<text text-anchor="middle" x="389.5" y="-740.5" font-family="sans" font-size="10.00" fill="#000000">factorize_qc</text>
</g>
<!-- 14&#45;&gt;13 -->
<g id="edge25" class="edge">
<title>14&#45;&gt;13</title>
<path fill="none" stroke="#c0c0c0" stroke-width="2" d="M396.9457,-724.7611C404.8958,-706.1027 418.4079,-676.5865 433.5,-653 439.6247,-643.428 447.1815,-633.6074 454.2938,-625.0102"/>
<polygon fill="#c0c0c0" stroke="#c0c0c0" stroke-width="2" points="457.1242,-627.0839 460.9154,-617.1906 451.7821,-622.5603 457.1242,-627.0839"/>
</g>
<!-- 16 -->
<g id="node17" class="node">
<title>16</title>
<path fill="none" stroke="#d8c356" stroke-width="2" stroke-dasharray="5,2" d="M500.5,-689C500.5,-689 454.5,-689 454.5,-689 448.5,-689 442.5,-683 442.5,-677 442.5,-677 442.5,-665 442.5,-665 442.5,-659 448.5,-653 454.5,-653 454.5,-653 500.5,-653 500.5,-653 506.5,-653 512.5,-659 512.5,-665 512.5,-665 512.5,-677 512.5,-677 512.5,-683 506.5,-689 500.5,-689"/>
<text text-anchor="middle" x="477.5" y="-668.5" font-family="sans" font-size="10.00" fill="#000000">smooth_qc</text>
</g>
<!-- 14&#45;&gt;16 -->
<g id="edge28" class="edge">
<title>14&#45;&gt;16</title>
<path fill="none" stroke="#c0c0c0" stroke-width="2" d="M411.7061,-724.8314C422.545,-715.9632 435.7444,-705.1637 447.4678,-695.5718"/>
<polygon fill="#c0c0c0" stroke="#c0c0c0" stroke-width="2" points="449.7777,-698.2041 455.301,-689.1628 445.345,-692.7864 449.7777,-698.2041"/>
</g>
<!-- 15 -->
<g id="node16" class="node">
<title>15</title>
<path fill="none" stroke="#56a2d8" stroke-width="2" stroke-dasharray="5,2" d="M501,-838C501,-838 398,-838 398,-838 392,-838 386,-832 386,-826 386,-826 386,-809 386,-809 386,-803 392,-797 398,-797 398,-797 501,-797 501,-797 507,-797 513,-803 513,-809 513,-809 513,-826 513,-826 513,-832 507,-838 501,-838"/>
<text text-anchor="middle" x="449.5" y="-826" font-family="sans" font-size="10.00" fill="#000000">mzml2hdf</text>
<text text-anchor="middle" x="449.5" y="-815" font-family="sans" font-size="10.00" fill="#000000">id: 2022_05_10_QC_05</text>
<text text-anchor="middle" x="449.5" y="-804" font-family="sans" font-size="10.00" fill="#000000">sample_type: qc</text>
</g>
<!-- 15&#45;&gt;14 -->
<g id="edge27" class="edge">
<title>15&#45;&gt;14</title>
<path fill="none" stroke="#c0c0c0" stroke-width="2" d="M432.7867,-796.7476C425.8842,-788.177 417.8058,-778.1463 410.5092,-769.0864"/>
<polygon fill="#c0c0c0" stroke="#c0c0c0" stroke-width="2" points="413.0825,-766.7016 404.0842,-761.1087 407.6307,-771.0923 413.0825,-766.7016"/>
</g>
<!-- 17 -->
<g id="node18" class="node">
<title>17</title>
<path fill="none" stroke="#d87d56" stroke-width="2" stroke-dasharray="5,2" d="M513,-761C513,-761 458,-761 458,-761 452,-761 446,-755 446,-749 446,-749 446,-737 446,-737 446,-731 452,-725 458,-725 458,-725 513,-725 513,-725 519,-725 525,-731 525,-737 525,-737 525,-749 525,-749 525,-755 519,-761 513,-761"/>
<text text-anchor="middle" x="485.5" y="-740.5" font-family="sans" font-size="10.00" fill="#000000">threshold_qc</text>
</g>
<!-- 15&#45;&gt;17 -->
<g id="edge30" class="edge">
<title>15&#45;&gt;17</title>
<path fill="none" stroke="#c0c0c0" stroke-width="2" d="M459.528,-796.7476C463.5004,-788.5269 468.122,-778.9627 472.3562,-770.2004"/>
<polygon fill="#c0c0c0" stroke="#c0c0c0" stroke-width="2" points="475.5499,-771.6354 476.7495,-761.1087 469.2472,-768.5897 475.5499,-771.6354"/>
</g>
<!-- 16&#45;&gt;13 -->
<g id="edge26" class="edge">
<title>16&#45;&gt;13</title>
<path fill="none" stroke="#c0c0c0" stroke-width="2" d="M477.5,-652.8314C477.5,-645.131 477.5,-635.9743 477.5,-627.4166"/>
<polygon fill="#c0c0c0" stroke="#c0c0c0" stroke-width="2" points="481.0001,-627.4132 477.5,-617.4133 474.0001,-627.4133 481.0001,-627.4132"/>
</g>
<!-- 17&#45;&gt;16 -->
<g id="edge29" class="edge">
<title>17&#45;&gt;16</title>
<path fill="none" stroke="#c0c0c0" stroke-width="2" d="M483.4813,-724.8314C482.6257,-717.131 481.6083,-707.9743 480.6574,-699.4166"/>
<polygon fill="#c0c0c0" stroke="#c0c0c0" stroke-width="2" points="484.1289,-698.9656 479.5459,-689.4133 477.1717,-699.7386 484.1289,-698.9656"/>
</g>
<!-- 18 -->
<g id="node19" class="node">
<title>18</title>
<path fill="none" stroke="#56d8c9" stroke-width="2" stroke-dasharray="5,2" d="M599,-617C599,-617 546,-617 546,-617 540,-617 534,-611 534,-605 534,-605 534,-593 534,-593 534,-587 540,-581 546,-581 546,-581 599,-581 599,-581 605,-581 611,-587 611,-593 611,-593 611,-605 611,-605 611,-611 605,-617 599,-617"/>
<text text-anchor="middle" x="572.5" y="-596.5" font-family="sans" font-size="10.00" fill="#000000">peakpick_qc</text>
</g>
<!-- 18&#45;&gt;7 -->
<g id="edge17" class="edge">
<title>18&#45;&gt;7</title>
<path fill="none" stroke="#c0c0c0" stroke-width="2" d="M572.2579,-580.9656C572.1445,-572.5178 572.0068,-562.2542 571.88,-552.8064"/>
<polygon fill="#c0c0c0" stroke="#c0c0c0" stroke-width="2" points="575.3773,-552.5786 571.7433,-542.6265 568.3779,-552.6726 575.3773,-552.5786"/>
</g>
<!-- 18&#45;&gt;28 -->
<g id="edge45" class="edge">
<title>18&#45;&gt;28</title>
<path fill="none" stroke="#c0c0c0" stroke-width="2" d="M594.5286,-580.9656C606.1789,-571.4277 620.6563,-559.5753 633.3349,-549.1956"/>
<polygon fill="#c0c0c0" stroke="#c0c0c0" stroke-width="2" points="635.8383,-551.6694 641.3589,-542.6265 631.404,-546.253 635.8383,-551.6694"/>
</g>
<!-- 18&#45;&gt;29 -->
<g id="edge47" class="edge">
<title>18&#45;&gt;29</title>
<path fill="none" stroke="#c0c0c0" stroke-width="2" d="M533.9547,-584.1363C501.4223,-571.5758 457.4075,-554.5414 434.0212,-545.0881"/>
<polygon fill="#c0c0c0" stroke="#c0c0c0" stroke-width="2" points="435.1698,-541.7762 424.5898,-541.215 432.5107,-548.2515 435.1698,-541.7762"/>
</g>
<!-- 18&#45;&gt;30 -->
<g id="edge54" class="edge">
<title>18&#45;&gt;30</title>
<path fill="none" stroke="#c0c0c0" stroke-width="2" d="M549.9873,-580.9656C537.9676,-571.3369 523.0032,-559.3493 509.9584,-548.8995"/>
<polygon fill="#c0c0c0" stroke="#c0c0c0" stroke-width="2" points="512.1206,-546.147 502.1277,-542.6265 507.7441,-551.6102 512.1206,-546.147"/>
</g>
<!-- 19 -->
<g id="node20" class="node">
<title>19</title>
<path fill="none" stroke="#56c9d8" stroke-width="2" stroke-dasharray="5,2" d="M607.5,-761C607.5,-761 555.5,-761 555.5,-761 549.5,-761 543.5,-755 543.5,-749 543.5,-749 543.5,-737 543.5,-737 543.5,-731 549.5,-725 555.5,-725 555.5,-725 607.5,-725 607.5,-725 613.5,-725 619.5,-731 619.5,-737 619.5,-737 619.5,-749 619.5,-749 619.5,-755 613.5,-761 607.5,-761"/>
<text text-anchor="middle" x="581.5" y="-740.5" font-family="sans" font-size="10.00" fill="#000000">factorize_qc</text>
</g>
<!-- 19&#45;&gt;18 -->
<g id="edge31" class="edge">
<title>19&#45;&gt;18</title>
<path fill="none" stroke="#c0c0c0" stroke-width="2" d="M580.3601,-724.7623C578.8251,-700.201 576.078,-656.2474 574.2721,-627.3541"/>
<polygon fill="#c0c0c0" stroke="#c0c0c0" stroke-width="2" points="577.7477,-626.8518 573.6306,-617.0896 570.7613,-627.2885 577.7477,-626.8518"/>
</g>
<!-- 21 -->
<g id="node22" class="node">
<title>21</title>
<path fill="none" stroke="#d8c356" stroke-width="2" stroke-dasharray="5,2" d="M658.5,-689C658.5,-689 612.5,-689 612.5,-689 606.5,-689 600.5,-683 600.5,-677 600.5,-677 600.5,-665 600.5,-665 600.5,-659 606.5,-653 612.5,-653 612.5,-653 658.5,-653 658.5,-653 664.5,-653 670.5,-659 670.5,-665 670.5,-665 670.5,-677 670.5,-677 670.5,-683 664.5,-689 658.5,-689"/>
<text text-anchor="middle" x="635.5" y="-668.5" font-family="sans" font-size="10.00" fill="#000000">smooth_qc</text>
</g>
<!-- 19&#45;&gt;21 -->
<g id="edge34" class="edge">
<title>19&#45;&gt;21</title>
<path fill="none" stroke="#c0c0c0" stroke-width="2" d="M595.1265,-724.8314C601.346,-716.5386 608.8322,-706.557 615.66,-697.4533"/>
<polygon fill="#c0c0c0" stroke="#c0c0c0" stroke-width="2" points="618.49,-699.5133 621.69,-689.4133 612.89,-695.3133 618.49,-699.5133"/>
</g>
<!-- 20 -->
<g id="node21" class="node">
<title>20</title>
<path fill="none" stroke="#56a2d8" stroke-width="2" stroke-dasharray="5,2" d="M692,-838C692,-838 589,-838 589,-838 583,-838 577,-832 577,-826 577,-826 577,-809 577,-809 577,-803 583,-797 589,-797 589,-797 692,-797 692,-797 698,-797 704,-803 704,-809 704,-809 704,-826 704,-826 704,-832 698,-838 692,-838"/>
<text text-anchor="middle" x="640.5" y="-826" font-family="sans" font-size="10.00" fill="#000000">mzml2hdf</text>
<text text-anchor="middle" x="640.5" y="-815" font-family="sans" font-size="10.00" fill="#000000">id: 2022_05_10_QC_06</text>
<text text-anchor="middle" x="640.5" y="-804" font-family="sans" font-size="10.00" fill="#000000">sample_type: qc</text>
</g>
<!-- 20&#45;&gt;19 -->
<g id="edge33" class="edge">
<title>20&#45;&gt;19</title>
<path fill="none" stroke="#c0c0c0" stroke-width="2" d="M624.0652,-796.7476C617.2778,-788.177 609.334,-778.1463 602.159,-769.0864"/>
<polygon fill="#c0c0c0" stroke="#c0c0c0" stroke-width="2" points="604.7933,-766.7751 595.8411,-761.1087 599.3057,-771.121 604.7933,-766.7751"/>
</g>
<!-- 22 -->
<g id="node23" class="node">
<title>22</title>
<path fill="none" stroke="#d87d56" stroke-width="2" stroke-dasharray="5,2" d="M705,-761C705,-761 650,-761 650,-761 644,-761 638,-755 638,-749 638,-749 638,-737 638,-737 638,-731 644,-725 650,-725 650,-725 705,-725 705,-725 711,-725 717,-731 717,-737 717,-737 717,-749 717,-749 717,-755 711,-761 705,-761"/>
<text text-anchor="middle" x="677.5" y="-740.5" font-family="sans" font-size="10.00" fill="#000000">threshold_qc</text>
</g>
<!-- 20&#45;&gt;22 -->
<g id="edge36" class="edge">
<title>20&#45;&gt;22</title>
<path fill="none" stroke="#c0c0c0" stroke-width="2" d="M650.8066,-796.7476C654.8893,-788.5269 659.6393,-778.9627 663.9911,-770.2004"/>
<polygon fill="#c0c0c0" stroke="#c0c0c0" stroke-width="2" points="667.193,-771.6218 668.5064,-761.1087 660.9236,-768.5081 667.193,-771.6218"/>
</g>
<!-- 21&#45;&gt;18 -->
<g id="edge32" class="edge">
<title>21&#45;&gt;18</title>
<path fill="none" stroke="#c0c0c0" stroke-width="2" d="M619.6024,-652.8314C612.2722,-644.454 603.434,-634.3531 595.4031,-625.1749"/>
<polygon fill="#c0c0c0" stroke="#c0c0c0" stroke-width="2" points="597.8307,-622.6343 588.6116,-617.4133 592.5627,-627.2438 597.8307,-622.6343"/>
</g>
<!-- 22&#45;&gt;21 -->
<g id="edge35" class="edge">
<title>22&#45;&gt;21</title>
<path fill="none" stroke="#c0c0c0" stroke-width="2" d="M666.9016,-724.8314C662.2123,-716.7925 656.5972,-707.1666 651.4202,-698.2918"/>
<polygon fill="#c0c0c0" stroke="#c0c0c0" stroke-width="2" points="654.3031,-696.2875 646.2411,-689.4133 648.2566,-699.8146 654.3031,-696.2875"/>
</g>
<!-- 23 -->
<g id="node24" class="node">
<title>23</title>
<path fill="none" stroke="#56d8c9" stroke-width="2" stroke-dasharray="5,2" d="M694,-617C694,-617 641,-617 641,-617 635,-617 629,-611 629,-605 629,-605 629,-593 629,-593 629,-587 635,-581 641,-581 641,-581 694,-581 694,-581 700,-581 706,-587 706,-593 706,-593 706,-605 706,-605 706,-611 700,-617 694,-617"/>
<text text-anchor="middle" x="667.5" y="-596.5" font-family="sans" font-size="10.00" fill="#000000">peakpick_qc</text>
</g>
<!-- 23&#45;&gt;7 -->
<g id="edge18" class="edge">
<title>23&#45;&gt;7</title>
<path fill="none" stroke="#c0c0c0" stroke-width="2" d="M644.2611,-580.9656C631.8536,-571.3369 616.4065,-559.3493 602.9409,-548.8995"/>
<polygon fill="#c0c0c0" stroke="#c0c0c0" stroke-width="2" points="604.9036,-545.9923 594.8577,-542.6265 600.612,-551.5225 604.9036,-545.9923"/>
</g>
<!-- 23&#45;&gt;28 -->
<g id="edge46" class="edge">
<title>23&#45;&gt;28</title>
<path fill="none" stroke="#c0c0c0" stroke-width="2" d="M666.5317,-580.9656C666.0781,-572.5178 665.5271,-562.2542 665.0198,-552.8064"/>
<polygon fill="#c0c0c0" stroke="#c0c0c0" stroke-width="2" points="668.5044,-552.4244 664.4732,-542.6265 661.5145,-552.7998 668.5044,-552.4244"/>
</g>
<!-- 23&#45;&gt;29 -->
<g id="edge50" class="edge">
<title>23&#45;&gt;29</title>
<path fill="none" stroke="#c0c0c0" stroke-width="2" d="M628.9535,-583.6213C626.1116,-582.6775 623.2727,-581.7912 620.5,-581 542.1318,-558.6373 516.1622,-569.5055 434.3438,-544.9084"/>
<polygon fill="#c0c0c0" stroke="#c0c0c0" stroke-width="2" points="435.2168,-541.5149 424.629,-541.9026 433.1476,-548.2021 435.2168,-541.5149"/>
</g>
<!-- 23&#45;&gt;30 -->
<g id="edge51" class="edge">
<title>23&#45;&gt;30</title>
<path fill="none" stroke="#c0c0c0" stroke-width="2" d="M628.7755,-584.157C625.9753,-583.0875 623.1945,-582.0265 620.5,-581 581.0255,-565.9617 568.8037,-562.604 525.9016,-545.075"/>
<polygon fill="#c0c0c0" stroke="#c0c0c0" stroke-width="2" points="527.1585,-541.8075 516.5787,-541.2418 524.4965,-548.2816 527.1585,-541.8075"/>
</g>
<!-- 24 -->
<g id="node25" class="node">
<title>24</title>
<path fill="none" stroke="#56c9d8" stroke-width="2" stroke-dasharray="5,2" d="M799.5,-761C799.5,-761 747.5,-761 747.5,-761 741.5,-761 735.5,-755 735.5,-749 735.5,-749 735.5,-737 735.5,-737 735.5,-731 741.5,-725 747.5,-725 747.5,-725 799.5,-725 799.5,-725 805.5,-725 811.5,-731 811.5,-737 811.5,-737 811.5,-749 811.5,-749 811.5,-755 805.5,-761 799.5,-761"/>
<text text-anchor="middle" x="773.5" y="-740.5" font-family="sans" font-size="10.00" fill="#000000">factorize_qc</text>
</g>
<!-- 24&#45;&gt;23 -->
<g id="edge37" class="edge">
<title>24&#45;&gt;23</title>
<path fill="none" stroke="#c0c0c0" stroke-width="2" d="M758.0569,-724.7978C749.4438,-714.462 738.642,-701.1901 729.5,-689 713.8473,-668.1284 697.1229,-643.7137 684.9936,-625.5831"/>
<polygon fill="#c0c0c0" stroke="#c0c0c0" stroke-width="2" points="687.8882,-623.6152 679.4332,-617.2305 682.0612,-627.4942 687.8882,-623.6152"/>
</g>
<!-- 26 -->
<g id="node27" class="node">
<title>26</title>
<path fill="none" stroke="#d8c356" stroke-width="2" stroke-dasharray="5,2" d="M796.5,-689C796.5,-689 750.5,-689 750.5,-689 744.5,-689 738.5,-683 738.5,-677 738.5,-677 738.5,-665 738.5,-665 738.5,-659 744.5,-653 750.5,-653 750.5,-653 796.5,-653 796.5,-653 802.5,-653 808.5,-659 808.5,-665 808.5,-665 808.5,-677 808.5,-677 808.5,-683 802.5,-689 796.5,-689"/>
<text text-anchor="middle" x="773.5" y="-668.5" font-family="sans" font-size="10.00" fill="#000000">smooth_qc</text>
</g>
<!-- 24&#45;&gt;26 -->
<g id="edge40" class="edge">
<title>24&#45;&gt;26</title>
<path fill="none" stroke="#c0c0c0" stroke-width="2" d="M773.5,-724.8314C773.5,-717.131 773.5,-707.9743 773.5,-699.4166"/>
<polygon fill="#c0c0c0" stroke="#c0c0c0" stroke-width="2" points="777.0001,-699.4132 773.5,-689.4133 770.0001,-699.4133 777.0001,-699.4132"/>
</g>
<!-- 25 -->
<g id="node26" class="node">
<title>25</title>
<path fill="none" stroke="#56a2d8" stroke-width="2" stroke-dasharray="5,2" d="M860,-838C860,-838 757,-838 757,-838 751,-838 745,-832 745,-826 745,-826 745,-809 745,-809 745,-803 751,-797 757,-797 757,-797 860,-797 860,-797 866,-797 872,-803 872,-809 872,-809 872,-826 872,-826 872,-832 866,-838 860,-838"/>
<text text-anchor="middle" x="808.5" y="-826" font-family="sans" font-size="10.00" fill="#000000">mzml2hdf</text>
<text text-anchor="middle" x="808.5" y="-815" font-family="sans" font-size="10.00" fill="#000000">id: 2022_05_10_QC_07</text>
<text text-anchor="middle" x="808.5" y="-804" font-family="sans" font-size="10.00" fill="#000000">sample_type: qc</text>
</g>
<!-- 25&#45;&gt;24 -->
<g id="edge39" class="edge">
<title>25&#45;&gt;24</title>
<path fill="none" stroke="#c0c0c0" stroke-width="2" d="M798.7505,-796.7476C794.8885,-788.5269 790.3952,-778.9627 786.2787,-770.2004"/>
<polygon fill="#c0c0c0" stroke="#c0c0c0" stroke-width="2" points="789.4274,-768.6714 782.0074,-761.1087 783.0918,-771.6479 789.4274,-768.6714"/>
</g>
<!-- 27 -->
<g id="node28" class="node">
<title>27</title>
<path fill="none" stroke="#d87d56" stroke-width="2" stroke-dasharray="5,2" d="M897,-761C897,-761 842,-761 842,-761 836,-761 830,-755 830,-749 830,-749 830,-737 830,-737 830,-731 836,-725 842,-725 842,-725 897,-725 897,-725 903,-725 909,-731 909,-737 909,-737 909,-749 909,-749 909,-755 903,-761 897,-761"/>
<text text-anchor="middle" x="869.5" y="-740.5" font-family="sans" font-size="10.00" fill="#000000">threshold_qc</text>
</g>
<!-- 25&#45;&gt;27 -->
<g id="edge42" class="edge">
<title>25&#45;&gt;27</title>
<path fill="none" stroke="#c0c0c0" stroke-width="2" d="M825.4919,-796.7476C832.5094,-788.177 840.7225,-778.1463 848.1407,-769.0864"/>
<polygon fill="#c0c0c0" stroke="#c0c0c0" stroke-width="2" points="851.0456,-771.0633 854.6728,-761.1087 845.6295,-766.6286 851.0456,-771.0633"/>
</g>
<!-- 26&#45;&gt;23 -->
<g id="edge38" class="edge">
<title>26&#45;&gt;23</title>
<path fill="none" stroke="#c0c0c0" stroke-width="2" d="M746.7517,-652.8314C733.4447,-643.7927 717.184,-632.7476 702.8625,-623.0198"/>
<polygon fill="#c0c0c0" stroke="#c0c0c0" stroke-width="2" points="704.4785,-619.8864 694.2397,-617.1628 700.5453,-625.677 704.4785,-619.8864"/>
</g>
<!-- 27&#45;&gt;26 -->
<g id="edge41" class="edge">
<title>27&#45;&gt;26</title>
<path fill="none" stroke="#c0c0c0" stroke-width="2" d="M845.2751,-724.8314C833.3372,-715.8779 818.7744,-704.9558 805.894,-695.2955"/>
<polygon fill="#c0c0c0" stroke="#c0c0c0" stroke-width="2" points="807.8171,-692.3629 797.7171,-689.1628 803.6171,-697.9629 807.8171,-692.3629"/>
</g>
<!-- 28&#45;&gt;5 -->
<g id="edge12" class="edge">
<title>28&#45;&gt;5</title>
<path fill="none" stroke="#c0c0c0" stroke-width="2" d="M626.3908,-507.0333C623.4153,-505.9188 620.428,-504.8894 617.5,-504 530.3068,-477.5141 502.0229,-489.17 409.5041,-468.0546"/>
<polygon fill="#c0c0c0" stroke="#c0c0c0" stroke-width="2" points="410.2751,-464.6405 399.7396,-465.7603 408.6739,-471.455 410.2751,-464.6405"/>
</g>
<!-- 28&#45;&gt;37 -->
<g id="edge65" class="edge">
<title>28&#45;&gt;37</title>
<path fill="none" stroke="#c0c0c0" stroke-width="2" d="M626.4459,-507.6975C623.431,-506.4188 620.4215,-505.1714 617.5,-504 587.4494,-491.9508 553.5417,-479.7056 525.4819,-469.9289"/>
<polygon fill="#c0c0c0" stroke="#c0c0c0" stroke-width="2" points="526.4114,-466.5468 515.8166,-466.5781 524.1184,-473.1606 526.4114,-466.5468"/>
</g>
<!-- 28&#45;&gt;45 -->
<g id="edge78" class="edge">
<title>28&#45;&gt;45</title>
<path fill="none" stroke="#c0c0c0" stroke-width="2" d="M644.3763,-506.4656C634.3586,-497.0186 621.9331,-485.3009 611.0022,-474.9926"/>
<polygon fill="#c0c0c0" stroke="#c0c0c0" stroke-width="2" points="613.398,-472.441 603.7214,-468.1265 608.5954,-477.5337 613.398,-472.441"/>
</g>
<!-- 28&#45;&gt;53 -->
<g id="edge91" class="edge">
<title>28&#45;&gt;53</title>
<path fill="none" stroke="#c0c0c0" stroke-width="2" d="M672.4567,-506.4656C676.8327,-497.6544 682.1897,-486.868 687.0449,-477.0921"/>
<polygon fill="#c0c0c0" stroke="#c0c0c0" stroke-width="2" points="690.1841,-478.6396 691.4976,-468.1265 683.9147,-475.5259 690.1841,-478.6396"/>
</g>
<!-- 29&#45;&gt;5 -->
<g id="edge13" class="edge">
<title>29&#45;&gt;5</title>
<path fill="none" stroke="#c0c0c0" stroke-width="2" d="M378.5433,-506.4656C374.1673,-497.6544 368.8103,-486.868 363.9551,-477.0921"/>
<polygon fill="#c0c0c0" stroke="#c0c0c0" stroke-width="2" points="367.0853,-475.5259 359.5024,-468.1265 360.8159,-478.6396 367.0853,-475.5259"/>
</g>
<!-- 29&#45;&gt;37 -->
<g id="edge66" class="edge">
<title>29&#45;&gt;37</title>
<path fill="none" stroke="#c0c0c0" stroke-width="2" d="M406.6237,-506.4656C416.6414,-497.0186 429.0669,-485.3009 439.9978,-474.9926"/>
<polygon fill="#c0c0c0" stroke="#c0c0c0" stroke-width="2" points="442.4046,-477.5337 447.2786,-468.1265 437.602,-472.441 442.4046,-477.5337"/>
</g>
<!-- 29&#45;&gt;45 -->
<g id="edge79" class="edge">
<title>29&#45;&gt;45</title>
<path fill="none" stroke="#c0c0c0" stroke-width="2" d="M424.5541,-507.6975C427.569,-506.4188 430.5785,-505.1714 433.5,-504 463.5506,-491.9508 497.4583,-479.7056 525.5181,-469.9289"/>
<polygon fill="#c0c0c0" stroke="#c0c0c0" stroke-width="2" points="526.8816,-473.1606 535.1834,-466.5781 524.5886,-466.5468 526.8816,-473.1606"/>
</g>
<!-- 29&#45;&gt;53 -->
<g id="edge92" class="edge">
<title>29&#45;&gt;53</title>
<path fill="none" stroke="#c0c0c0" stroke-width="2" d="M424.6092,-507.0333C427.5847,-505.9188 430.572,-504.8894 433.5,-504 520.6932,-477.5141 548.9771,-489.17 641.4959,-468.0546"/>
<polygon fill="#c0c0c0" stroke="#c0c0c0" stroke-width="2" points="642.3261,-471.455 651.2604,-465.7603 640.7249,-464.6405 642.3261,-471.455"/>
</g>
<!-- 30&#45;&gt;5 -->
<g id="edge14" class="edge">
<title>30&#45;&gt;5</title>
<path fill="none" stroke="#c0c0c0" stroke-width="2" d="M448.2727,-506.4656C430.971,-496.4736 409.2708,-483.9413 390.7121,-473.2233"/>
<polygon fill="#c0c0c0" stroke="#c0c0c0" stroke-width="2" points="392.2969,-470.0968 381.8868,-468.1265 388.7961,-476.1585 392.2969,-470.0968"/>
</g>
<!-- 30&#45;&gt;37 -->
<g id="edge67" class="edge">
<title>30&#45;&gt;37</title>
<path fill="none" stroke="#c0c0c0" stroke-width="2" d="M476.3531,-506.4656C474.8631,-497.927 473.0494,-487.5333 471.3862,-478.002"/>
<polygon fill="#c0c0c0" stroke="#c0c0c0" stroke-width="2" points="474.83,-477.376 469.663,-468.1265 467.9342,-478.5793 474.83,-477.376"/>
</g>
<!-- 30&#45;&gt;45 -->
<g id="edge80" class="edge">
<title>30&#45;&gt;45</title>
<path fill="none" stroke="#c0c0c0" stroke-width="2" d="M504.9176,-506.4656C518.6163,-496.7461 535.7026,-484.6229 550.5277,-474.1041"/>
<polygon fill="#c0c0c0" stroke="#c0c0c0" stroke-width="2" points="552.8222,-476.7677 558.9526,-468.1265 548.7716,-471.0587 552.8222,-476.7677"/>
</g>
<!-- 30&#45;&gt;53 -->
<g id="edge93" class="edge">
<title>30&#45;&gt;53</title>
<path fill="none" stroke="#c0c0c0" stroke-width="2" d="M516.7497,-507.4477C519.6932,-506.2388 522.6348,-505.0748 525.5,-504 573.6542,-485.937 588.8692,-484.2083 641.8644,-468.1642"/>
<polygon fill="#c0c0c0" stroke="#c0c0c0" stroke-width="2" points="642.9164,-471.5026 651.4549,-465.23 640.8684,-464.8088 642.9164,-471.5026"/>
</g>
<!-- 31&#45;&gt;3 -->
<g id="edge8" class="edge">
<title>31&#45;&gt;3</title>
<path fill="none" stroke="#c0c0c0" stroke-width="2" d="M212.5,-287.8314C212.5,-280.131 212.5,-270.9743 212.5,-262.4166"/>
<polygon fill="#c0c0c0" stroke="#c0c0c0" stroke-width="2" points="216.0001,-262.4132 212.5,-252.4133 209.0001,-262.4133 216.0001,-262.4132"/>
</g>
<!-- 32&#45;&gt;31 -->
<g id="edge56" class="edge">
<title>32&#45;&gt;31</title>
<path fill="none" stroke="#c0c0c0" stroke-width="2" d="M220.7242,-359.8314C219.5478,-352.131 218.1489,-342.9743 216.8414,-334.4166"/>
<polygon fill="#c0c0c0" stroke="#c0c0c0" stroke-width="2" points="220.2833,-333.7699 215.3131,-324.4133 213.3636,-334.8272 220.2833,-333.7699"/>
</g>
<!-- 33 -->
<g id="node34" class="node">
<title>33</title>
<path fill="none" stroke="#59d856" stroke-width="2" stroke-dasharray="5,2" d="M479,-108C479,-108 426,-108 426,-108 420,-108 414,-102 414,-96 414,-96 414,-84 414,-84 414,-78 420,-72 426,-72 426,-72 479,-72 479,-72 485,-72 491,-78 491,-84 491,-84 491,-96 491,-96 491,-102 485,-108 479,-108"/>
<text text-anchor="middle" x="452.5" y="-87.5" font-family="sans" font-size="10.00" fill="#000000">save_to_csv</text>
</g>
<!-- 33&#45;&gt;0 -->
<g id="edge2" class="edge">
<title>33&#45;&gt;0</title>
<path fill="none" stroke="#c0c0c0" stroke-width="2" d="M464.3601,-71.8314C469.6629,-63.7079 476.0237,-53.9637 481.8673,-45.0118"/>
<polygon fill="#c0c0c0" stroke="#c0c0c0" stroke-width="2" points="484.9448,-46.7003 487.4802,-36.4133 479.0831,-42.8739 484.9448,-46.7003"/>
</g>
<!-- 34 -->
<g id="node35" class="node">
<title>34</title>
<path fill="none" stroke="#567bd8" stroke-width="2" stroke-dasharray="5,2" d="M477,-180C477,-180 394,-180 394,-180 388,-180 382,-174 382,-168 382,-168 382,-156 382,-156 382,-150 388,-144 394,-144 394,-144 477,-144 477,-144 483,-144 489,-150 489,-156 489,-156 489,-168 489,-168 489,-174 483,-180 477,-180"/>
<text text-anchor="middle" x="435.5" y="-159.5" font-family="sans" font-size="10.00" fill="#000000">downselect_peaks</text>
</g>
<!-- 34&#45;&gt;33 -->
<g id="edge58" class="edge">
<title>34&#45;&gt;33</title>
<path fill="none" stroke="#c0c0c0" stroke-width="2" d="M439.7898,-143.8314C441.608,-136.131 443.7699,-126.9743 445.7905,-118.4166"/>
<polygon fill="#c0c0c0" stroke="#c0c0c0" stroke-width="2" points="449.2608,-118.95 448.1524,-108.4133 442.4481,-117.3414 449.2608,-118.95"/>
</g>
<!-- 35 -->
<g id="node36" class="node">
<title>35</title>
<path fill="none" stroke="#9fd856" stroke-width="2" stroke-dasharray="5,2" d="M464.5,-252C464.5,-252 386.5,-252 386.5,-252 380.5,-252 374.5,-246 374.5,-240 374.5,-240 374.5,-228 374.5,-228 374.5,-222 380.5,-216 386.5,-216 386.5,-216 464.5,-216 464.5,-216 470.5,-216 476.5,-222 476.5,-228 476.5,-228 476.5,-240 476.5,-240 476.5,-246 470.5,-252 464.5,-252"/>
<text text-anchor="middle" x="425.5" y="-231.5" font-family="sans" font-size="10.00" fill="#000000">peakpick_sample</text>
</g>
<!-- 35&#45;&gt;34 -->
<g id="edge59" class="edge">
<title>35&#45;&gt;34</title>
<path fill="none" stroke="#c0c0c0" stroke-width="2" d="M428.0234,-215.8314C429.0929,-208.131 430.3647,-198.9743 431.5532,-190.4166"/>
<polygon fill="#c0c0c0" stroke="#c0c0c0" stroke-width="2" points="435.0336,-190.7997 432.9426,-180.4133 428.1001,-189.8367 435.0336,-190.7997"/>
</g>
<!-- 36 -->
<g id="node37" class="node">
<title>36</title>
<path fill="none" stroke="#d85656" stroke-width="2" stroke-dasharray="5,2" d="M383,-396C383,-396 306,-396 306,-396 300,-396 294,-390 294,-384 294,-384 294,-372 294,-372 294,-366 300,-360 306,-360 306,-360 383,-360 383,-360 389,-360 395,-366 395,-372 395,-372 395,-384 395,-384 395,-390 389,-396 383,-396"/>
<text text-anchor="middle" x="344.5" y="-375.5" font-family="sans" font-size="10.00" fill="#000000">factorize_sample</text>
</g>
<!-- 36&#45;&gt;35 -->
<g id="edge60" class="edge">
<title>36&#45;&gt;35</title>
<path fill="none" stroke="#c0c0c0" stroke-width="2" d="M346.6448,-359.988C349.5357,-340.9865 355.9719,-310.709 369.5,-288 375.8722,-277.3033 384.9169,-267.308 393.8831,-258.896"/>
<polygon fill="#c0c0c0" stroke="#c0c0c0" stroke-width="2" points="396.2214,-261.5003 401.3359,-252.2216 391.5515,-256.2857 396.2214,-261.5003"/>
</g>
<!-- 39 -->
<g id="node40" class="node">
<title>39</title>
<path fill="none" stroke="#56d87b" stroke-width="2" stroke-dasharray="5,2" d="M461,-324C461,-324 390,-324 390,-324 384,-324 378,-318 378,-312 378,-312 378,-300 378,-300 378,-294 384,-288 390,-288 390,-288 461,-288 461,-288 467,-288 473,-294 473,-300 473,-300 473,-312 473,-312 473,-318 467,-324 461,-324"/>
<text text-anchor="middle" x="425.5" y="-303.5" font-family="sans" font-size="10.00" fill="#000000">smooth_sample</text>
</g>
<!-- 36&#45;&gt;39 -->
<g id="edge68" class="edge">
<title>36&#45;&gt;39</title>
<path fill="none" stroke="#c0c0c0" stroke-width="2" d="M364.9397,-359.8314C374.8205,-351.0485 386.8324,-340.3712 397.545,-330.8489"/>
<polygon fill="#c0c0c0" stroke="#c0c0c0" stroke-width="2" points="399.918,-333.4224 405.0668,-324.1628 395.2674,-328.1906 399.918,-333.4224"/>
</g>
<!-- 37&#45;&gt;36 -->
<g id="edge62" class="edge">
<title>37&#45;&gt;36</title>
<path fill="none" stroke="#c0c0c0" stroke-width="2" d="M435.7142,-431.8314C420.1097,-422.6221 400.976,-411.3301 384.2697,-401.4706"/>
<polygon fill="#c0c0c0" stroke="#c0c0c0" stroke-width="2" points="385.6669,-398.2312 375.2759,-396.1628 382.1091,-404.2596 385.6669,-398.2312"/>
</g>
<!-- 40 -->
<g id="node41" class="node">
<title>40</title>
<path fill="none" stroke="#78d856" stroke-width="2" stroke-dasharray="5,2" d="M505.5,-396C505.5,-396 425.5,-396 425.5,-396 419.5,-396 413.5,-390 413.5,-384 413.5,-384 413.5,-372 413.5,-372 413.5,-366 419.5,-360 425.5,-360 425.5,-360 505.5,-360 505.5,-360 511.5,-360 517.5,-366 517.5,-372 517.5,-372 517.5,-384 517.5,-384 517.5,-390 511.5,-396 505.5,-396"/>
<text text-anchor="middle" x="465.5" y="-375.5" font-family="sans" font-size="10.00" fill="#000000">threshold_sample</text>
</g>
<!-- 37&#45;&gt;40 -->
<g id="edge70" class="edge">
<title>37&#45;&gt;40</title>
<path fill="none" stroke="#c0c0c0" stroke-width="2" d="M466.2477,-431.8314C466.1407,-424.131 466.0135,-414.9743 465.8947,-406.4166"/>
<polygon fill="#c0c0c0" stroke="#c0c0c0" stroke-width="2" points="469.3944,-406.3637 465.7557,-396.4133 462.3951,-406.4609 469.3944,-406.3637"/>
</g>
<!-- 38 -->
<g id="node39" class="node">
<title>38</title>
<path fill="none" stroke="#56a2d8" stroke-width="2" stroke-dasharray="5,2" d="M320,-545C320,-545 187,-545 187,-545 181,-545 175,-539 175,-533 175,-533 175,-516 175,-516 175,-510 181,-504 187,-504 187,-504 320,-504 320,-504 326,-504 332,-510 332,-516 332,-516 332,-533 332,-533 332,-539 326,-545 320,-545"/>
<text text-anchor="middle" x="253.5" y="-533" font-family="sans" font-size="10.00" fill="#000000">mzml2hdf</text>
<text text-anchor="middle" x="253.5" y="-522" font-family="sans" font-size="10.00" fill="#000000">id: 2022_05_10_NR50510_02</text>
<text text-anchor="middle" x="253.5" y="-511" font-family="sans" font-size="10.00" fill="#000000">sample_type: samples</text>
</g>
<!-- 38&#45;&gt;37 -->
<g id="edge63" class="edge">
<title>38&#45;&gt;37</title>
<path fill="none" stroke="#c0c0c0" stroke-width="2" d="M312.267,-503.9453C341.9164,-493.575 377.7891,-481.028 407.4745,-470.6451"/>
<polygon fill="#c0c0c0" stroke="#c0c0c0" stroke-width="2" points="409.0028,-473.8185 417.2866,-467.2132 406.6917,-467.211 409.0028,-473.8185"/>
</g>
<!-- 39&#45;&gt;35 -->
<g id="edge61" class="edge">
<title>39&#45;&gt;35</title>
<path fill="none" stroke="#c0c0c0" stroke-width="2" d="M425.5,-287.8314C425.5,-280.131 425.5,-270.9743 425.5,-262.4166"/>
<polygon fill="#c0c0c0" stroke="#c0c0c0" stroke-width="2" points="429.0001,-262.4132 425.5,-252.4133 422.0001,-262.4133 429.0001,-262.4132"/>
</g>
<!-- 40&#45;&gt;39 -->
<g id="edge69" class="edge">
<title>40&#45;&gt;39</title>
<path fill="none" stroke="#c0c0c0" stroke-width="2" d="M455.4063,-359.8314C450.9403,-351.7925 445.5925,-342.1666 440.6621,-333.2918"/>
<polygon fill="#c0c0c0" stroke="#c0c0c0" stroke-width="2" points="443.6456,-331.4551 435.7296,-324.4133 437.5265,-334.8546 443.6456,-331.4551"/>
</g>
<!-- 41 -->
<g id="node42" class="node">
<title>41</title>
<path fill="none" stroke="#59d856" stroke-width="2" stroke-dasharray="5,2" d="M589,-108C589,-108 536,-108 536,-108 530,-108 524,-102 524,-96 524,-96 524,-84 524,-84 524,-78 530,-72 536,-72 536,-72 589,-72 589,-72 595,-72 601,-78 601,-84 601,-84 601,-96 601,-96 601,-102 595,-108 589,-108"/>
<text text-anchor="middle" x="562.5" y="-87.5" font-family="sans" font-size="10.00" fill="#000000">save_to_csv</text>
</g>
<!-- 41&#45;&gt;0 -->
<g id="edge3" class="edge">
<title>41&#45;&gt;0</title>
<path fill="none" stroke="#c0c0c0" stroke-width="2" d="M546.6024,-71.8314C539.2722,-63.454 530.434,-53.3531 522.4031,-44.1749"/>
<polygon fill="#c0c0c0" stroke="#c0c0c0" stroke-width="2" points="524.8307,-41.6343 515.6116,-36.4133 519.5627,-46.2438 524.8307,-41.6343"/>
</g>
<!-- 42 -->
<g id="node43" class="node">
<title>42</title>
<path fill="none" stroke="#567bd8" stroke-width="2" stroke-dasharray="5,2" d="M622,-180C622,-180 539,-180 539,-180 533,-180 527,-174 527,-168 527,-168 527,-156 527,-156 527,-150 533,-144 539,-144 539,-144 622,-144 622,-144 628,-144 634,-150 634,-156 634,-156 634,-168 634,-168 634,-174 628,-180 622,-180"/>
<text text-anchor="middle" x="580.5" y="-159.5" font-family="sans" font-size="10.00" fill="#000000">downselect_peaks</text>
</g>
<!-- 42&#45;&gt;41 -->
<g id="edge71" class="edge">
<title>42&#45;&gt;41</title>
<path fill="none" stroke="#c0c0c0" stroke-width="2" d="M575.9578,-143.8314C574.0116,-136.0463 571.6932,-126.7729 569.5337,-118.1347"/>
<polygon fill="#c0c0c0" stroke="#c0c0c0" stroke-width="2" points="572.9242,-117.2658 567.1033,-108.4133 566.1332,-118.9636 572.9242,-117.2658"/>
</g>
<!-- 43 -->
<g id="node44" class="node">
<title>43</title>
<path fill="none" stroke="#9fd856" stroke-width="2" stroke-dasharray="5,2" d="M624.5,-252C624.5,-252 546.5,-252 546.5,-252 540.5,-252 534.5,-246 534.5,-240 534.5,-240 534.5,-228 534.5,-228 534.5,-222 540.5,-216 546.5,-216 546.5,-216 624.5,-216 624.5,-216 630.5,-216 636.5,-222 636.5,-228 636.5,-228 636.5,-240 636.5,-240 636.5,-246 630.5,-252 624.5,-252"/>
<text text-anchor="middle" x="585.5" y="-231.5" font-family="sans" font-size="10.00" fill="#000000">peakpick_sample</text>
</g>
<!-- 43&#45;&gt;42 -->
<g id="edge72" class="edge">
<title>43&#45;&gt;42</title>
<path fill="none" stroke="#c0c0c0" stroke-width="2" d="M584.2383,-215.8314C583.7035,-208.131 583.0677,-198.9743 582.4734,-190.4166"/>
<polygon fill="#c0c0c0" stroke="#c0c0c0" stroke-width="2" points="585.9632,-190.1467 581.7787,-180.4133 578.98,-190.6317 585.9632,-190.1467"/>
</g>
<!-- 44 -->
<g id="node45" class="node">
<title>44</title>
<path fill="none" stroke="#d85656" stroke-width="2" stroke-dasharray="5,2" d="M625,-396C625,-396 548,-396 548,-396 542,-396 536,-390 536,-384 536,-384 536,-372 536,-372 536,-366 542,-360 548,-360 548,-360 625,-360 625,-360 631,-360 637,-366 637,-372 637,-372 637,-384 637,-384 637,-390 631,-396 625,-396"/>
<text text-anchor="middle" x="586.5" y="-375.5" font-family="sans" font-size="10.00" fill="#000000">factorize_sample</text>
</g>
<!-- 44&#45;&gt;43 -->
<g id="edge73" class="edge">
<title>44&#45;&gt;43</title>
<path fill="none" stroke="#c0c0c0" stroke-width="2" d="M586.3733,-359.7623C586.2028,-335.201 585.8976,-291.2474 585.6969,-262.3541"/>
<polygon fill="#c0c0c0" stroke="#c0c0c0" stroke-width="2" points="589.1951,-262.065 585.6256,-252.0896 582.1952,-262.1137 589.1951,-262.065"/>
</g>
<!-- 47 -->
<g id="node48" class="node">
<title>47</title>
<path fill="none" stroke="#56d87b" stroke-width="2" stroke-dasharray="5,2" d="M697,-324C697,-324 626,-324 626,-324 620,-324 614,-318 614,-312 614,-312 614,-300 614,-300 614,-294 620,-288 626,-288 626,-288 697,-288 697,-288 703,-288 709,-294 709,-300 709,-300 709,-312 709,-312 709,-318 703,-324 697,-324"/>
<text text-anchor="middle" x="661.5" y="-303.5" font-family="sans" font-size="10.00" fill="#000000">smooth_sample</text>
</g>
<!-- 44&#45;&gt;47 -->
<g id="edge81" class="edge">
<title>44&#45;&gt;47</title>
<path fill="none" stroke="#c0c0c0" stroke-width="2" d="M605.4257,-359.8314C614.4857,-351.1337 625.4809,-340.5783 635.3265,-331.1265"/>
<polygon fill="#c0c0c0" stroke="#c0c0c0" stroke-width="2" points="637.7904,-333.613 642.5804,-324.1628 632.9426,-328.5633 637.7904,-333.613"/>
</g>
<!-- 45&#45;&gt;44 -->
<g id="edge75" class="edge">
<title>45&#45;&gt;44</title>
<path fill="none" stroke="#c0c0c0" stroke-width="2" d="M585.0047,-431.8314C585.2186,-424.131 585.4729,-414.9743 585.7106,-406.4166"/>
<polygon fill="#c0c0c0" stroke="#c0c0c0" stroke-width="2" points="589.2094,-406.5066 585.9885,-396.4133 582.2121,-406.3122 589.2094,-406.5066"/>
</g>
<!-- 48 -->
<g id="node49" class="node">
<title>48</title>
<path fill="none" stroke="#78d856" stroke-width="2" stroke-dasharray="5,2" d="M747.5,-396C747.5,-396 667.5,-396 667.5,-396 661.5,-396 655.5,-390 655.5,-384 655.5,-384 655.5,-372 655.5,-372 655.5,-366 661.5,-360 667.5,-360 667.5,-360 747.5,-360 747.5,-360 753.5,-360 759.5,-366 759.5,-372 759.5,-372 759.5,-384 759.5,-384 759.5,-390 753.5,-396 747.5,-396"/>
<text text-anchor="middle" x="707.5" y="-375.5" font-family="sans" font-size="10.00" fill="#000000">threshold_sample</text>
</g>
<!-- 45&#45;&gt;48 -->
<g id="edge83" class="edge">
<title>45&#45;&gt;48</title>
<path fill="none" stroke="#c0c0c0" stroke-width="2" d="M615.5381,-431.8314C631.2705,-422.6221 650.5611,-411.3301 667.4044,-401.4706"/>
<polygon fill="#c0c0c0" stroke="#c0c0c0" stroke-width="2" points="669.6098,-404.2352 676.4718,-396.1628 666.0735,-398.1941 669.6098,-404.2352"/>
</g>
<!-- 46 -->
<g id="node47" class="node">
<title>46</title>
<path fill="none" stroke="#56a2d8" stroke-width="2" stroke-dasharray="5,2" d="M864,-545C864,-545 731,-545 731,-545 725,-545 719,-539 719,-533 719,-533 719,-516 719,-516 719,-510 725,-504 731,-504 731,-504 864,-504 864,-504 870,-504 876,-510 876,-516 876,-516 876,-533 876,-533 876,-539 870,-545 864,-545"/>
<text text-anchor="middle" x="797.5" y="-533" font-family="sans" font-size="10.00" fill="#000000">mzml2hdf</text>
<text text-anchor="middle" x="797.5" y="-522" font-family="sans" font-size="10.00" fill="#000000">id: 2022_05_10_NR51517_02</text>
<text text-anchor="middle" x="797.5" y="-511" font-family="sans" font-size="10.00" fill="#000000">sample_type: samples</text>
</g>
<!-- 46&#45;&gt;45 -->
<g id="edge76" class="edge">
<title>46&#45;&gt;45</title>
<path fill="none" stroke="#c0c0c0" stroke-width="2" d="M738.733,-503.9453C709.0836,-493.575 673.2109,-481.028 643.5255,-470.6451"/>
<polygon fill="#c0c0c0" stroke="#c0c0c0" stroke-width="2" points="644.3083,-467.211 633.7134,-467.2132 641.9972,-473.8185 644.3083,-467.211"/>
</g>
<!-- 47&#45;&gt;43 -->
<g id="edge74" class="edge">
<title>47&#45;&gt;43</title>
<path fill="none" stroke="#c0c0c0" stroke-width="2" d="M642.322,-287.8314C633.1412,-279.1337 621.9994,-268.5783 612.0224,-259.1265"/>
<polygon fill="#c0c0c0" stroke="#c0c0c0" stroke-width="2" points="614.3385,-256.4995 604.6719,-252.1628 609.5243,-261.5811 614.3385,-256.4995"/>
</g>
<!-- 48&#45;&gt;47 -->
<g id="edge82" class="edge">
<title>48&#45;&gt;47</title>
<path fill="none" stroke="#c0c0c0" stroke-width="2" d="M695.8923,-359.8314C690.7022,-351.7079 684.4768,-341.9637 678.7575,-333.0118"/>
<polygon fill="#c0c0c0" stroke="#c0c0c0" stroke-width="2" points="681.5974,-330.9559 673.264,-324.4133 675.6985,-334.7246 681.5974,-330.9559"/>
</g>
<!-- 49 -->
<g id="node50" class="node">
<title>49</title>
<path fill="none" stroke="#59d856" stroke-width="2" stroke-dasharray="5,2" d="M727,-108C727,-108 674,-108 674,-108 668,-108 662,-102 662,-96 662,-96 662,-84 662,-84 662,-78 668,-72 674,-72 674,-72 727,-72 727,-72 733,-72 739,-78 739,-84 739,-84 739,-96 739,-96 739,-102 733,-108 727,-108"/>
<text text-anchor="middle" x="700.5" y="-87.5" font-family="sans" font-size="10.00" fill="#000000">save_to_csv</text>
</g>
<!-- 49&#45;&gt;0 -->
<g id="edge4" class="edge">
<title>49&#45;&gt;0</title>
<path fill="none" stroke="#c0c0c0" stroke-width="2" d="M661.7452,-76.1177C625.4575,-63.1191 571.635,-43.8394 536.0722,-31.1005"/>
<polygon fill="#c0c0c0" stroke="#c0c0c0" stroke-width="2" points="537.1501,-27.7689 526.5556,-27.6915 534.7895,-34.3589 537.1501,-27.7689"/>
</g>
<!-- 50 -->
<g id="node51" class="node">
<title>50</title>
<path fill="none" stroke="#567bd8" stroke-width="2" stroke-dasharray="5,2" d="M790,-180C790,-180 707,-180 707,-180 701,-180 695,-174 695,-168 695,-168 695,-156 695,-156 695,-150 701,-144 707,-144 707,-144 790,-144 790,-144 796,-144 802,-150 802,-156 802,-156 802,-168 802,-168 802,-174 796,-180 790,-180"/>
<text text-anchor="middle" x="748.5" y="-159.5" font-family="sans" font-size="10.00" fill="#000000">downselect_peaks</text>
</g>
<!-- 50&#45;&gt;49 -->
<g id="edge84" class="edge">
<title>50&#45;&gt;49</title>
<path fill="none" stroke="#c0c0c0" stroke-width="2" d="M736.3876,-143.8314C730.9719,-135.7079 724.4758,-125.9637 718.5079,-117.0118"/>
<polygon fill="#c0c0c0" stroke="#c0c0c0" stroke-width="2" points="721.2347,-114.7923 712.7755,-108.4133 715.4104,-118.6753 721.2347,-114.7923"/>
</g>
<!-- 51 -->
<g id="node52" class="node">
<title>51</title>
<path fill="none" stroke="#9fd856" stroke-width="2" stroke-dasharray="5,2" d="M829.5,-252C829.5,-252 751.5,-252 751.5,-252 745.5,-252 739.5,-246 739.5,-240 739.5,-240 739.5,-228 739.5,-228 739.5,-222 745.5,-216 751.5,-216 751.5,-216 829.5,-216 829.5,-216 835.5,-216 841.5,-222 841.5,-228 841.5,-228 841.5,-240 841.5,-240 841.5,-246 835.5,-252 829.5,-252"/>
<text text-anchor="middle" x="790.5" y="-231.5" font-family="sans" font-size="10.00" fill="#000000">peakpick_sample</text>
</g>
<!-- 51&#45;&gt;50 -->
<g id="edge85" class="edge">
<title>51&#45;&gt;50</title>
<path fill="none" stroke="#c0c0c0" stroke-width="2" d="M779.9016,-215.8314C775.2123,-207.7925 769.5972,-198.1666 764.4202,-189.2918"/>
<polygon fill="#c0c0c0" stroke="#c0c0c0" stroke-width="2" points="767.3031,-187.2875 759.2411,-180.4133 761.2566,-190.8146 767.3031,-187.2875"/>
</g>
<!-- 52 -->
<g id="node53" class="node">
<title>52</title>
<path fill="none" stroke="#d85656" stroke-width="2" stroke-dasharray="5,2" d="M867,-396C867,-396 790,-396 790,-396 784,-396 778,-390 778,-384 778,-384 778,-372 778,-372 778,-366 784,-360 790,-360 790,-360 867,-360 867,-360 873,-360 879,-366 879,-372 879,-372 879,-384 879,-384 879,-390 873,-396 867,-396"/>
<text text-anchor="middle" x="828.5" y="-375.5" font-family="sans" font-size="10.00" fill="#000000">factorize_sample</text>
</g>
<!-- 52&#45;&gt;51 -->
<g id="edge86" class="edge">
<title>52&#45;&gt;51</title>
<path fill="none" stroke="#c0c0c0" stroke-width="2" d="M821.8604,-359.6504C818.2361,-349.2686 813.8237,-335.9997 810.5,-324 804.8121,-303.465 799.6315,-279.9494 795.9686,-262.1062"/>
<polygon fill="#c0c0c0" stroke="#c0c0c0" stroke-width="2" points="799.3515,-261.1755 793.9441,-252.0644 792.4895,-262.5589 799.3515,-261.1755"/>
</g>
<!-- 55 -->
<g id="node56" class="node">
<title>55</title>
<path fill="none" stroke="#56d87b" stroke-width="2" stroke-dasharray="5,2" d="M902,-324C902,-324 831,-324 831,-324 825,-324 819,-318 819,-312 819,-312 819,-300 819,-300 819,-294 825,-288 831,-288 831,-288 902,-288 902,-288 908,-288 914,-294 914,-300 914,-300 914,-312 914,-312 914,-318 908,-324 902,-324"/>
<text text-anchor="middle" x="866.5" y="-303.5" font-family="sans" font-size="10.00" fill="#000000">smooth_sample</text>
</g>
<!-- 52&#45;&gt;55 -->
<g id="edge94" class="edge">
<title>52&#45;&gt;55</title>
<path fill="none" stroke="#c0c0c0" stroke-width="2" d="M838.089,-359.8314C842.3317,-351.7925 847.4121,-342.1666 852.096,-333.2918"/>
<polygon fill="#c0c0c0" stroke="#c0c0c0" stroke-width="2" points="855.2096,-334.8908 856.7819,-324.4133 849.0189,-331.6235 855.2096,-334.8908"/>
</g>
<!-- 53&#45;&gt;52 -->
<g id="edge88" class="edge">
<title>53&#45;&gt;52</title>
<path fill="none" stroke="#c0c0c0" stroke-width="2" d="M732.7998,-431.8314C749.3234,-422.5368 769.6186,-411.1208 787.2607,-401.1971"/>
<polygon fill="#c0c0c0" stroke="#c0c0c0" stroke-width="2" points="789.2107,-404.116 796.2105,-396.1628 785.7788,-398.015 789.2107,-404.116"/>
</g>
<!-- 56 -->
<g id="node57" class="node">
<title>56</title>
<path fill="none" stroke="#78d856" stroke-width="2" stroke-dasharray="5,2" d="M989.5,-396C989.5,-396 909.5,-396 909.5,-396 903.5,-396 897.5,-390 897.5,-384 897.5,-384 897.5,-372 897.5,-372 897.5,-366 903.5,-360 909.5,-360 909.5,-360 989.5,-360 989.5,-360 995.5,-360 1001.5,-366 1001.5,-372 1001.5,-372 1001.5,-384 1001.5,-384 1001.5,-390 995.5,-396 989.5,-396"/>
<text text-anchor="middle" x="949.5" y="-375.5" font-family="sans" font-size="10.00" fill="#000000">threshold_sample</text>
</g>
<!-- 53&#45;&gt;56 -->
<g id="edge96" class="edge">
<title>53&#45;&gt;56</title>
<path fill="none" stroke="#c0c0c0" stroke-width="2" d="M749.6122,-435.9984C785.3376,-425.7893 835.133,-411.5106 887.4655,-396.2926"/>
<polygon fill="#c0c0c0" stroke="#c0c0c0" stroke-width="2" points="888.6403,-399.596 897.2639,-393.4409 886.6842,-392.8749 888.6403,-399.596"/>
</g>
<!-- 54 -->
<g id="node55" class="node">
<title>54</title>
<path fill="none" stroke="#56a2d8" stroke-width="2" stroke-dasharray="5,2" d="M1039,-545C1039,-545 906,-545 906,-545 900,-545 894,-539 894,-533 894,-533 894,-516 894,-516 894,-510 900,-504 906,-504 906,-504 1039,-504 1039,-504 1045,-504 1051,-510 1051,-516 1051,-516 1051,-533 1051,-533 1051,-539 1045,-545 1039,-545"/>
<text text-anchor="middle" x="972.5" y="-533" font-family="sans" font-size="10.00" fill="#000000">mzml2hdf</text>
<text text-anchor="middle" x="972.5" y="-522" font-family="sans" font-size="10.00" fill="#000000">id: 2022_05_10_NR51588_02</text>
<text text-anchor="middle" x="972.5" y="-511" font-family="sans" font-size="10.00" fill="#000000">sample_type: samples</text>
</g>
<!-- 54&#45;&gt;53 -->
<g id="edge89" class="edge">
<title>54&#45;&gt;53</title>
<path fill="none" stroke="#c0c0c0" stroke-width="2" d="M897.4548,-503.9453C853.8741,-492.0087 799.7643,-477.1882 759.2939,-466.1035"/>
<polygon fill="#c0c0c0" stroke="#c0c0c0" stroke-width="2" points="760.1444,-462.7076 749.575,-463.4415 758.2952,-469.4589 760.1444,-462.7076"/>
</g>
<!-- 55&#45;&gt;51 -->
<g id="edge87" class="edge">
<title>55&#45;&gt;51</title>
<path fill="none" stroke="#c0c0c0" stroke-width="2" d="M847.322,-287.8314C838.1412,-279.1337 826.9994,-268.5783 817.0224,-259.1265"/>
<polygon fill="#c0c0c0" stroke="#c0c0c0" stroke-width="2" points="819.3385,-256.4995 809.6719,-252.1628 814.5243,-261.5811 819.3385,-256.4995"/>
</g>
<!-- 56&#45;&gt;55 -->
<g id="edge95" class="edge">
<title>56&#45;&gt;55</title>
<path fill="none" stroke="#c0c0c0" stroke-width="2" d="M928.5556,-359.8314C918.4309,-351.0485 906.1223,-340.3712 895.1452,-330.8489"/>
<polygon fill="#c0c0c0" stroke="#c0c0c0" stroke-width="2" points="897.2851,-328.0718 887.4377,-324.1628 892.6981,-333.3595 897.2851,-328.0718"/>
</g>
</g>
</svg>
